<svg xmlns="http://www.w3.org/2000/svg" viewBox="0 0 901.49 1091.6"><defs><style>.cls-1,.cls-10,.cls-12,.cls-9{font-size:16px;}.cls-1{font-family:Avenir-Black, Avenir;}.cls-2,.cls-7{font-family:Avenir-Roman, Avenir;}.cls-3{letter-spacing:0em;}.cls-4{font-family:Avenir-Light, Avenir;letter-spacing:0em;}.cls-5{font-size:36px;}.cls-10,.cls-12,.cls-5,.cls-9{font-family:Avenir-Heavy, Avenir;}.cls-6,.cls-8{fill:none;stroke:#000;stroke-miterlimit:10;}.cls-6{stroke-width:1.18px;}.cls-7{font-size:36.09px;}.cls-10{letter-spacing:-0.02em;}.cls-11{letter-spacing:0em;}.cls-12{letter-spacing:-0.09em;}.cls-13{letter-spacing:0em;}.cls-14{letter-spacing:-0.02em;}</style></defs><title>01_calendar_proto</title><g id="Layer_3" data-name="Layer 3"><text class="cls-1" transform="translate(14.9 210.38)">is simply<tspan class="cls-2"><tspan x="0" y="19.2">dummy text</tspan><tspan x="0" y="38.4">of </tspan><tspan class="cls-3" x="18.99" y="38.4">t</tspan><tspan x="24.64" y="38.4">he prin</tspan><tspan class="cls-3" x="75.02" y="38.4">t</tspan><tspan x="80.67" y="38.4">ing</tspan><tspan class="cls-4" x="103.18" y="38.4"> </tspan></tspan></text><text class="cls-1" transform="translate(14.9 271.49)">is simply<tspan class="cls-2"><tspan x="0" y="19.2">dummy text</tspan><tspan x="0" y="38.4">of </tspan><tspan class="cls-3" x="18.99" y="38.4">t</tspan><tspan x="24.64" y="38.4">he prin</tspan><tspan class="cls-3" x="75.02" y="38.4">t</tspan><tspan x="80.67" y="38.4">ing</tspan><tspan class="cls-4" x="103.18" y="38.4"> </tspan></tspan></text><text class="cls-1" transform="translate(144.06 210.38)">is simply<tspan class="cls-2"><tspan x="0" y="19.2">dummy text</tspan><tspan x="0" y="38.4">of </tspan><tspan class="cls-3" x="18.99" y="38.4">t</tspan><tspan x="24.64" y="38.4">he prin</tspan><tspan class="cls-3" x="75.02" y="38.4">t</tspan><tspan x="80.67" y="38.4">ing</tspan><tspan class="cls-4" x="103.18" y="38.4"> </tspan></tspan></text><text class="cls-1" transform="translate(144.06 271.49)">is simply<tspan class="cls-2"><tspan x="0" y="19.2">dummy text</tspan><tspan x="0" y="38.4">of </tspan><tspan class="cls-3" x="18.99" y="38.4">t</tspan><tspan x="24.64" y="38.4">he prin</tspan><tspan class="cls-3" x="75.02" y="38.4">t</tspan><tspan x="80.67" y="38.4">ing</tspan><tspan class="cls-4" x="103.18" y="38.4"> </tspan></tspan></text><text class="cls-1" transform="translate(273.23 210.38)">is simply<tspan class="cls-2"><tspan x="0" y="19.2">dummy text</tspan><tspan x="0" y="38.4">of </tspan><tspan class="cls-3" x="18.99" y="38.4">t</tspan><tspan x="24.64" y="38.4">he prin</tspan><tspan class="cls-3" x="75.02" y="38.4">t</tspan><tspan x="80.67" y="38.4">ing</tspan><tspan class="cls-4" x="103.18" y="38.4"> </tspan></tspan></text><text class="cls-1" transform="translate(273.23 271.49)">is simply<tspan class="cls-2"><tspan x="0" y="19.2">dummy text</tspan><tspan x="0" y="38.4">of </tspan><tspan class="cls-3" x="18.99" y="38.4">t</tspan><tspan x="24.64" y="38.4">he prin</tspan><tspan class="cls-3" x="75.02" y="38.4">t</tspan><tspan x="80.67" y="38.4">ing</tspan><tspan class="cls-4" x="103.18" y="38.4"> </tspan></tspan></text><text class="cls-1" transform="translate(402.4 210.38)">is simply<tspan class="cls-2"><tspan x="0" y="19.2">dummy text</tspan><tspan x="0" y="38.4">of </tspan><tspan class="cls-3" x="18.99" y="38.4">t</tspan><tspan x="24.64" y="38.4">he prin</tspan><tspan class="cls-3" x="75.02" y="38.4">t</tspan><tspan x="80.67" y="38.4">ing</tspan><tspan class="cls-4" x="103.18" y="38.4"> </tspan></tspan></text><text class="cls-1" transform="translate(402.4 271.49)">is simply<tspan class="cls-2"><tspan x="0" y="19.2">dummy text</tspan><tspan x="0" y="38.4">of </tspan><tspan class="cls-3" x="18.99" y="38.4">t</tspan><tspan x="24.64" y="38.4">he prin</tspan><tspan class="cls-3" x="75.02" y="38.4">t</tspan><tspan x="80.67" y="38.4">ing</tspan><tspan class="cls-4" x="103.18" y="38.4"> </tspan></tspan></text><text class="cls-1" transform="translate(531.56 210.38)">is simply<tspan class="cls-2"><tspan x="0" y="19.2">dummy text</tspan><tspan x="0" y="38.4">of </tspan><tspan class="cls-3" x="18.99" y="38.4">t</tspan><tspan x="24.64" y="38.4">he prin</tspan><tspan class="cls-3" x="75.02" y="38.4">t</tspan><tspan x="80.67" y="38.4">ing</tspan><tspan class="cls-4" x="103.18" y="38.4"> </tspan></tspan></text><text class="cls-1" transform="translate(531.56 271.49)">is simply<tspan class="cls-2"><tspan x="0" y="19.2">dummy text</tspan><tspan x="0" y="38.4">of </tspan><tspan class="cls-3" x="18.99" y="38.4">t</tspan><tspan x="24.64" y="38.4">he prin</tspan><tspan class="cls-3" x="75.02" y="38.4">t</tspan><tspan x="80.67" y="38.4">ing</tspan><tspan class="cls-4" x="103.18" y="38.4"> </tspan></tspan></text><text class="cls-1" transform="translate(660.73 210.38)">is simply<tspan class="cls-2"><tspan x="0" y="19.2">dummy text</tspan><tspan x="0" y="38.4">of </tspan><tspan class="cls-3" x="18.99" y="38.4">t</tspan><tspan x="24.64" y="38.4">he prin</tspan><tspan class="cls-3" x="75.02" y="38.4">t</tspan><tspan x="80.67" y="38.4">ing</tspan><tspan class="cls-4" x="103.18" y="38.4"> </tspan></tspan></text><text class="cls-1" transform="translate(660.73 271.49)">is simply<tspan class="cls-2"><tspan x="0" y="19.2">dummy text</tspan><tspan x="0" y="38.4">of </tspan><tspan class="cls-3" x="18.99" y="38.4">t</tspan><tspan x="24.64" y="38.4">he prin</tspan><tspan class="cls-3" x="75.02" y="38.4">t</tspan><tspan x="80.67" y="38.4">ing</tspan><tspan class="cls-4" x="103.18" y="38.4"> </tspan></tspan></text><text class="cls-1" transform="translate(789.9 210.38)">is simply<tspan class="cls-2"><tspan x="0" y="19.2">dummy text</tspan><tspan x="0" y="38.4">of </tspan><tspan class="cls-3" x="18.99" y="38.4">t</tspan><tspan x="24.64" y="38.4">he prin</tspan><tspan class="cls-3" x="75.02" y="38.4">t</tspan><tspan x="80.67" y="38.4">ing</tspan><tspan class="cls-4" x="103.18" y="38.4"> </tspan></tspan></text><text class="cls-1" transform="translate(789.9 271.49)">is simply<tspan class="cls-2"><tspan x="0" y="19.2">dummy text</tspan><tspan x="0" y="38.4">of </tspan><tspan class="cls-3" x="18.99" y="38.4">t</tspan><tspan x="24.64" y="38.4">he prin</tspan><tspan class="cls-3" x="75.02" y="38.4">t</tspan><tspan x="80.67" y="38.4">ing</tspan><tspan class="cls-4" x="103.18" y="38.4"> </tspan></tspan></text><text class="cls-1" transform="translate(14.9 393.72)">is simply<tspan class="cls-2"><tspan x="0" y="19.2">dummy text</tspan><tspan x="0" y="38.4">of </tspan><tspan class="cls-3" x="18.99" y="38.4">t</tspan><tspan x="24.64" y="38.4">he prin</tspan><tspan class="cls-3" x="75.02" y="38.4">t</tspan><tspan x="80.67" y="38.4">ing</tspan><tspan class="cls-4" x="103.18" y="38.4"> </tspan></tspan></text><text class="cls-1" transform="translate(14.9 454.83)">is simply<tspan class="cls-2"><tspan x="0" y="19.2">dummy text</tspan><tspan x="0" y="38.4">of </tspan><tspan class="cls-3" x="18.99" y="38.4">t</tspan><tspan x="24.64" y="38.4">he prin</tspan><tspan class="cls-3" x="75.02" y="38.4">t</tspan><tspan x="80.67" y="38.4">ing</tspan><tspan class="cls-4" x="103.18" y="38.4"> </tspan></tspan></text><text class="cls-1" transform="translate(144.06 393.72)">is simply<tspan class="cls-2"><tspan x="0" y="19.2">dummy text</tspan><tspan x="0" y="38.4">of </tspan><tspan class="cls-3" x="18.99" y="38.4">t</tspan><tspan x="24.64" y="38.4">he prin</tspan><tspan class="cls-3" x="75.02" y="38.4">t</tspan><tspan x="80.67" y="38.4">ing</tspan><tspan class="cls-4" x="103.18" y="38.4"> </tspan></tspan></text><text class="cls-1" transform="translate(144.06 454.83)">is simply<tspan class="cls-2"><tspan x="0" y="19.2">dummy text</tspan><tspan x="0" y="38.4">of </tspan><tspan class="cls-3" x="18.99" y="38.4">t</tspan><tspan x="24.64" y="38.4">he prin</tspan><tspan class="cls-3" x="75.02" y="38.4">t</tspan><tspan x="80.67" y="38.4">ing</tspan><tspan class="cls-4" x="103.18" y="38.4"> </tspan></tspan></text><text class="cls-1" transform="translate(273.23 393.72)">is simply<tspan class="cls-2"><tspan x="0" y="19.2">dummy text</tspan><tspan x="0" y="38.4">of </tspan><tspan class="cls-3" x="18.99" y="38.4">t</tspan><tspan x="24.64" y="38.4">he prin</tspan><tspan class="cls-3" x="75.02" y="38.4">t</tspan><tspan x="80.67" y="38.4">ing</tspan><tspan class="cls-4" x="103.18" y="38.4"> </tspan></tspan></text><text class="cls-1" transform="translate(273.23 454.83)">is simply<tspan class="cls-2"><tspan x="0" y="19.2">dummy text</tspan><tspan x="0" y="38.4">of </tspan><tspan class="cls-3" x="18.99" y="38.4">t</tspan><tspan x="24.64" y="38.4">he prin</tspan><tspan class="cls-3" x="75.02" y="38.4">t</tspan><tspan x="80.67" y="38.4">ing</tspan><tspan class="cls-4" x="103.18" y="38.4"> </tspan></tspan></text><text class="cls-1" transform="translate(402.4 393.72)">is simply<tspan class="cls-2"><tspan x="0" y="19.2">dummy text</tspan><tspan x="0" y="38.4">of </tspan><tspan class="cls-3" x="18.99" y="38.4">t</tspan><tspan x="24.64" y="38.4">he prin</tspan><tspan class="cls-3" x="75.02" y="38.4">t</tspan><tspan x="80.67" y="38.4">ing</tspan><tspan class="cls-4" x="103.18" y="38.4"> </tspan></tspan></text><text class="cls-1" transform="translate(402.4 454.83)">is simply<tspan class="cls-2"><tspan x="0" y="19.2">dummy text</tspan><tspan x="0" y="38.4">of </tspan><tspan class="cls-3" x="18.99" y="38.4">t</tspan><tspan x="24.64" y="38.4">he prin</tspan><tspan class="cls-3" x="75.02" y="38.4">t</tspan><tspan x="80.67" y="38.4">ing</tspan><tspan class="cls-4" x="103.18" y="38.4"> </tspan></tspan></text><text class="cls-1" transform="translate(531.56 393.72)">is simply<tspan class="cls-2"><tspan x="0" y="19.2">dummy text</tspan><tspan x="0" y="38.4">of </tspan><tspan class="cls-3" x="18.99" y="38.4">t</tspan><tspan x="24.64" y="38.4">he prin</tspan><tspan class="cls-3" x="75.02" y="38.4">t</tspan><tspan x="80.67" y="38.4">ing</tspan><tspan class="cls-4" x="103.18" y="38.4"> </tspan></tspan></text><text class="cls-1" transform="translate(531.56 454.83)">is simply<tspan class="cls-2"><tspan x="0" y="19.2">dummy text</tspan><tspan x="0" y="38.4">of </tspan><tspan class="cls-3" x="18.99" y="38.4">t</tspan><tspan x="24.64" y="38.4">he prin</tspan><tspan class="cls-3" x="75.02" y="38.4">t</tspan><tspan x="80.67" y="38.4">ing</tspan><tspan class="cls-4" x="103.18" y="38.4"> </tspan></tspan></text><text class="cls-1" transform="translate(660.73 393.72)">is simply<tspan class="cls-2"><tspan x="0" y="19.2">dummy text</tspan><tspan x="0" y="38.4">of </tspan><tspan class="cls-3" x="18.99" y="38.4">t</tspan><tspan x="24.64" y="38.4">he prin</tspan><tspan class="cls-3" x="75.02" y="38.4">t</tspan><tspan x="80.67" y="38.4">ing</tspan><tspan class="cls-4" x="103.18" y="38.4"> </tspan></tspan></text><text class="cls-1" transform="translate(660.73 454.83)">is simply<tspan class="cls-2"><tspan x="0" y="19.2">dummy text</tspan><tspan x="0" y="38.4">of </tspan><tspan class="cls-3" x="18.99" y="38.4">t</tspan><tspan x="24.64" y="38.4">he prin</tspan><tspan class="cls-3" x="75.02" y="38.4">t</tspan><tspan x="80.67" y="38.4">ing</tspan><tspan class="cls-4" x="103.18" y="38.4"> </tspan></tspan></text><text class="cls-1" transform="translate(789.9 393.72)">is simply<tspan class="cls-2"><tspan x="0" y="19.2">dummy text</tspan><tspan x="0" y="38.4">of </tspan><tspan class="cls-3" x="18.99" y="38.4">t</tspan><tspan x="24.64" y="38.4">he prin</tspan><tspan class="cls-3" x="75.02" y="38.4">t</tspan><tspan x="80.67" y="38.4">ing</tspan><tspan class="cls-4" x="103.18" y="38.4"> </tspan></tspan></text><text class="cls-1" transform="translate(789.9 454.83)">is simply<tspan class="cls-2"><tspan x="0" y="19.2">dummy text</tspan><tspan x="0" y="38.4">of </tspan><tspan class="cls-3" x="18.99" y="38.4">t</tspan><tspan x="24.64" y="38.4">he prin</tspan><tspan class="cls-3" x="75.02" y="38.4">t</tspan><tspan x="80.67" y="38.4">ing</tspan><tspan class="cls-4" x="103.18" y="38.4"> </tspan></tspan></text><text class="cls-1" transform="translate(14.9 577.05)">is simply<tspan class="cls-2"><tspan x="0" y="19.2">dummy text</tspan><tspan x="0" y="38.4">of </tspan><tspan class="cls-3" x="18.99" y="38.4">t</tspan><tspan x="24.64" y="38.4">he prin</tspan><tspan class="cls-3" x="75.02" y="38.4">t</tspan><tspan x="80.67" y="38.4">ing</tspan><tspan class="cls-4" x="103.18" y="38.4"> </tspan></tspan></text><text class="cls-1" transform="translate(14.9 638.16)">is simply<tspan class="cls-2"><tspan x="0" y="19.2">dummy text</tspan><tspan x="0" y="38.4">of </tspan><tspan class="cls-3" x="18.99" y="38.4">t</tspan><tspan x="24.64" y="38.4">he prin</tspan><tspan class="cls-3" x="75.02" y="38.4">t</tspan><tspan x="80.67" y="38.4">ing</tspan><tspan class="cls-4" x="103.18" y="38.4"> </tspan></tspan></text><text class="cls-1" transform="translate(144.06 577.05)">is simply<tspan class="cls-2"><tspan x="0" y="19.2">dummy text</tspan><tspan x="0" y="38.4">of </tspan><tspan class="cls-3" x="18.99" y="38.4">t</tspan><tspan x="24.64" y="38.4">he prin</tspan><tspan class="cls-3" x="75.02" y="38.4">t</tspan><tspan x="80.67" y="38.4">ing</tspan><tspan class="cls-4" x="103.18" y="38.4"> </tspan></tspan></text><text class="cls-1" transform="translate(144.06 638.16)">is simply<tspan class="cls-2"><tspan x="0" y="19.2">dummy text</tspan><tspan x="0" y="38.4">of </tspan><tspan class="cls-3" x="18.99" y="38.4">t</tspan><tspan x="24.64" y="38.4">he prin</tspan><tspan class="cls-3" x="75.02" y="38.4">t</tspan><tspan x="80.67" y="38.4">ing</tspan><tspan class="cls-4" x="103.18" y="38.4"> </tspan></tspan></text><text class="cls-1" transform="translate(273.23 577.05)">is simply<tspan class="cls-2"><tspan x="0" y="19.2">dummy text</tspan><tspan x="0" y="38.4">of </tspan><tspan class="cls-3" x="18.99" y="38.4">t</tspan><tspan x="24.64" y="38.4">he prin</tspan><tspan class="cls-3" x="75.02" y="38.4">t</tspan><tspan x="80.67" y="38.4">ing</tspan><tspan class="cls-4" x="103.18" y="38.4"> </tspan></tspan></text><text class="cls-1" transform="translate(273.23 638.16)">is simply<tspan class="cls-2"><tspan x="0" y="19.2">dummy text</tspan><tspan x="0" y="38.4">of </tspan><tspan class="cls-3" x="18.99" y="38.4">t</tspan><tspan x="24.64" y="38.4">he prin</tspan><tspan class="cls-3" x="75.02" y="38.4">t</tspan><tspan x="80.67" y="38.4">ing</tspan><tspan class="cls-4" x="103.18" y="38.4"> </tspan></tspan></text><text class="cls-1" transform="translate(402.4 577.05)">is simply<tspan class="cls-2"><tspan x="0" y="19.2">dummy text</tspan><tspan x="0" y="38.4">of </tspan><tspan class="cls-3" x="18.99" y="38.4">t</tspan><tspan x="24.64" y="38.4">he prin</tspan><tspan class="cls-3" x="75.02" y="38.4">t</tspan><tspan x="80.67" y="38.4">ing</tspan><tspan class="cls-4" x="103.18" y="38.4"> </tspan></tspan></text><text class="cls-1" transform="translate(402.4 638.16)">is simply<tspan class="cls-2"><tspan x="0" y="19.2">dummy text</tspan><tspan x="0" y="38.4">of </tspan><tspan class="cls-3" x="18.99" y="38.4">t</tspan><tspan x="24.64" y="38.4">he prin</tspan><tspan class="cls-3" x="75.02" y="38.4">t</tspan><tspan x="80.67" y="38.4">ing</tspan><tspan class="cls-4" x="103.18" y="38.4"> </tspan></tspan></text><text class="cls-1" transform="translate(531.56 577.05)">is simply<tspan class="cls-2"><tspan x="0" y="19.2">dummy text</tspan><tspan x="0" y="38.4">of </tspan><tspan class="cls-3" x="18.99" y="38.4">t</tspan><tspan x="24.64" y="38.4">he prin</tspan><tspan class="cls-3" x="75.02" y="38.4">t</tspan><tspan x="80.67" y="38.4">ing</tspan><tspan class="cls-4" x="103.18" y="38.4"> </tspan></tspan></text><text class="cls-1" transform="translate(531.56 638.16)">is simply<tspan class="cls-2"><tspan x="0" y="19.2">dummy text</tspan><tspan x="0" y="38.4">of </tspan><tspan class="cls-3" x="18.99" y="38.4">t</tspan><tspan x="24.64" y="38.4">he prin</tspan><tspan class="cls-3" x="75.02" y="38.4">t</tspan><tspan x="80.67" y="38.4">ing</tspan><tspan class="cls-4" x="103.18" y="38.4"> </tspan></tspan></text><text class="cls-1" transform="translate(660.73 577.05)">is simply<tspan class="cls-2"><tspan x="0" y="19.2">dummy text</tspan><tspan x="0" y="38.4">of </tspan><tspan class="cls-3" x="18.99" y="38.4">t</tspan><tspan x="24.64" y="38.4">he prin</tspan><tspan class="cls-3" x="75.02" y="38.4">t</tspan><tspan x="80.67" y="38.4">ing</tspan><tspan class="cls-4" x="103.18" y="38.4"> </tspan></tspan></text><text class="cls-1" transform="translate(660.73 638.16)">is simply<tspan class="cls-2"><tspan x="0" y="19.2">dummy text</tspan><tspan x="0" y="38.4">of </tspan><tspan class="cls-3" x="18.99" y="38.4">t</tspan><tspan x="24.64" y="38.4">he prin</tspan><tspan class="cls-3" x="75.02" y="38.4">t</tspan><tspan x="80.67" y="38.4">ing</tspan><tspan class="cls-4" x="103.18" y="38.4"> </tspan></tspan></text><text class="cls-1" transform="translate(789.9 577.05)">is simply<tspan class="cls-2"><tspan x="0" y="19.2">dummy text</tspan><tspan x="0" y="38.4">of </tspan><tspan class="cls-3" x="18.99" y="38.4">t</tspan><tspan x="24.64" y="38.4">he prin</tspan><tspan class="cls-3" x="75.02" y="38.4">t</tspan><tspan x="80.67" y="38.4">ing</tspan><tspan class="cls-4" x="103.18" y="38.4"> </tspan></tspan></text><text class="cls-1" transform="translate(789.9 638.16)">is simply<tspan class="cls-2"><tspan x="0" y="19.2">dummy text</tspan><tspan x="0" y="38.4">of </tspan><tspan class="cls-3" x="18.99" y="38.4">t</tspan><tspan x="24.64" y="38.4">he prin</tspan><tspan class="cls-3" x="75.02" y="38.4">t</tspan><tspan x="80.67" y="38.4">ing</tspan><tspan class="cls-4" x="103.18" y="38.4"> </tspan></tspan></text><text class="cls-1" transform="translate(14.9 760.38)">is simply<tspan class="cls-2"><tspan x="0" y="19.2">dummy text</tspan><tspan x="0" y="38.4">of </tspan><tspan class="cls-3" x="18.99" y="38.4">t</tspan><tspan x="24.64" y="38.4">he prin</tspan><tspan class="cls-3" x="75.02" y="38.4">t</tspan><tspan x="80.67" y="38.4">ing</tspan><tspan class="cls-4" x="103.18" y="38.4"> </tspan></tspan></text><text class="cls-1" transform="translate(14.9 821.49)">is simply<tspan class="cls-2"><tspan x="0" y="19.2">dummy text</tspan><tspan x="0" y="38.4">of </tspan><tspan class="cls-3" x="18.99" y="38.4">t</tspan><tspan x="24.64" y="38.4">he prin</tspan><tspan class="cls-3" x="75.02" y="38.4">t</tspan><tspan x="80.67" y="38.4">ing</tspan><tspan class="cls-4" x="103.18" y="38.4"> </tspan></tspan></text><text class="cls-1" transform="translate(144.06 760.38)">is simply<tspan class="cls-2"><tspan x="0" y="19.2">dummy text</tspan><tspan x="0" y="38.4">of </tspan><tspan class="cls-3" x="18.99" y="38.4">t</tspan><tspan x="24.64" y="38.4">he prin</tspan><tspan class="cls-3" x="75.02" y="38.4">t</tspan><tspan x="80.67" y="38.4">ing</tspan><tspan class="cls-4" x="103.18" y="38.4"> </tspan></tspan></text><text class="cls-1" transform="translate(144.06 821.49)">is simply<tspan class="cls-2"><tspan x="0" y="19.2">dummy text</tspan><tspan x="0" y="38.4">of </tspan><tspan class="cls-3" x="18.99" y="38.4">t</tspan><tspan x="24.64" y="38.4">he prin</tspan><tspan class="cls-3" x="75.02" y="38.4">t</tspan><tspan x="80.67" y="38.4">ing</tspan><tspan class="cls-4" x="103.18" y="38.4"> </tspan></tspan></text><text class="cls-1" transform="translate(273.23 760.38)">is simply<tspan class="cls-2"><tspan x="0" y="19.2">dummy text</tspan><tspan x="0" y="38.4">of </tspan><tspan class="cls-3" x="18.99" y="38.4">t</tspan><tspan x="24.64" y="38.4">he prin</tspan><tspan class="cls-3" x="75.02" y="38.4">t</tspan><tspan x="80.67" y="38.4">ing</tspan><tspan class="cls-4" x="103.18" y="38.4"> </tspan></tspan></text><text class="cls-1" transform="translate(273.23 821.49)">is simply<tspan class="cls-2"><tspan x="0" y="19.2">dummy text</tspan><tspan x="0" y="38.4">of </tspan><tspan class="cls-3" x="18.99" y="38.4">t</tspan><tspan x="24.64" y="38.4">he prin</tspan><tspan class="cls-3" x="75.02" y="38.4">t</tspan><tspan x="80.67" y="38.4">ing</tspan><tspan class="cls-4" x="103.18" y="38.4"> </tspan></tspan></text><text class="cls-1" transform="translate(402.4 760.38)">is simply<tspan class="cls-2"><tspan x="0" y="19.2">dummy text</tspan><tspan x="0" y="38.4">of </tspan><tspan class="cls-3" x="18.99" y="38.4">t</tspan><tspan x="24.64" y="38.4">he prin</tspan><tspan class="cls-3" x="75.02" y="38.4">t</tspan><tspan x="80.67" y="38.4">ing</tspan><tspan class="cls-4" x="103.18" y="38.4"> </tspan></tspan></text><text class="cls-1" transform="translate(402.4 821.49)">is simply<tspan class="cls-2"><tspan x="0" y="19.2">dummy text</tspan><tspan x="0" y="38.4">of </tspan><tspan class="cls-3" x="18.99" y="38.4">t</tspan><tspan x="24.64" y="38.4">he prin</tspan><tspan class="cls-3" x="75.02" y="38.4">t</tspan><tspan x="80.67" y="38.4">ing</tspan><tspan class="cls-4" x="103.18" y="38.4"> </tspan></tspan></text><text class="cls-1" transform="translate(531.56 760.38)">is simply<tspan class="cls-2"><tspan x="0" y="19.2">dummy text</tspan><tspan x="0" y="38.4">of </tspan><tspan class="cls-3" x="18.99" y="38.4">t</tspan><tspan x="24.64" y="38.4">he prin</tspan><tspan class="cls-3" x="75.02" y="38.4">t</tspan><tspan x="80.67" y="38.4">ing</tspan><tspan class="cls-4" x="103.18" y="38.4"> </tspan></tspan></text><text class="cls-1" transform="translate(531.56 821.49)">is simply<tspan class="cls-2"><tspan x="0" y="19.2">dummy text</tspan><tspan x="0" y="38.4">of </tspan><tspan class="cls-3" x="18.99" y="38.4">t</tspan><tspan x="24.64" y="38.4">he prin</tspan><tspan class="cls-3" x="75.02" y="38.4">t</tspan><tspan x="80.67" y="38.4">ing</tspan><tspan class="cls-4" x="103.18" y="38.4"> </tspan></tspan></text><text class="cls-1" transform="translate(660.73 760.38)">is simply<tspan class="cls-2"><tspan x="0" y="19.2">dummy text</tspan><tspan x="0" y="38.4">of </tspan><tspan class="cls-3" x="18.99" y="38.4">t</tspan><tspan x="24.64" y="38.4">he prin</tspan><tspan class="cls-3" x="75.02" y="38.4">t</tspan><tspan x="80.67" y="38.4">ing</tspan><tspan class="cls-4" x="103.18" y="38.4"> </tspan></tspan></text><text class="cls-1" transform="translate(660.73 821.49)">is simply<tspan class="cls-2"><tspan x="0" y="19.2">dummy text</tspan><tspan x="0" y="38.4">of </tspan><tspan class="cls-3" x="18.99" y="38.4">t</tspan><tspan x="24.64" y="38.4">he prin</tspan><tspan class="cls-3" x="75.02" y="38.4">t</tspan><tspan x="80.67" y="38.4">ing</tspan><tspan class="cls-4" x="103.18" y="38.4"> </tspan></tspan></text><text class="cls-1" transform="translate(789.9 760.38)">is simply<tspan class="cls-2"><tspan x="0" y="19.2">dummy text</tspan><tspan x="0" y="38.4">of </tspan><tspan class="cls-3" x="18.99" y="38.4">t</tspan><tspan x="24.64" y="38.4">he prin</tspan><tspan class="cls-3" x="75.02" y="38.4">t</tspan><tspan x="80.67" y="38.4">ing</tspan><tspan class="cls-4" x="103.18" y="38.4"> </tspan></tspan></text><text class="cls-1" transform="translate(789.9 821.49)">is simply<tspan class="cls-2"><tspan x="0" y="19.2">dummy text</tspan><tspan x="0" y="38.4">of </tspan><tspan class="cls-3" x="18.99" y="38.4">t</tspan><tspan x="24.64" y="38.4">he prin</tspan><tspan class="cls-3" x="75.02" y="38.4">t</tspan><tspan x="80.67" y="38.4">ing</tspan><tspan class="cls-4" x="103.18" y="38.4"> </tspan></tspan></text><text class="cls-1" transform="translate(14.9 943.72)">is simply<tspan class="cls-2"><tspan x="0" y="19.2">dummy text</tspan><tspan x="0" y="38.4">of </tspan><tspan class="cls-3" x="18.99" y="38.4">t</tspan><tspan x="24.64" y="38.4">he prin</tspan><tspan class="cls-3" x="75.02" y="38.4">t</tspan><tspan x="80.67" y="38.4">ing</tspan><tspan class="cls-4" x="103.18" y="38.4"> </tspan></tspan></text><text class="cls-1" transform="translate(14.9 1004.83)">is simply<tspan class="cls-2"><tspan x="0" y="19.2">dummy text</tspan><tspan x="0" y="38.4">of </tspan><tspan class="cls-3" x="18.99" y="38.4">t</tspan><tspan x="24.64" y="38.4">he prin</tspan><tspan class="cls-3" x="75.02" y="38.4">t</tspan><tspan x="80.67" y="38.4">ing</tspan><tspan class="cls-4" x="103.18" y="38.4"> </tspan></tspan></text><text class="cls-1" transform="translate(144.06 943.72)">is simply<tspan class="cls-2"><tspan x="0" y="19.2">dummy text</tspan><tspan x="0" y="38.4">of </tspan><tspan class="cls-3" x="18.99" y="38.4">t</tspan><tspan x="24.64" y="38.4">he prin</tspan><tspan class="cls-3" x="75.02" y="38.4">t</tspan><tspan x="80.67" y="38.4">ing</tspan><tspan class="cls-4" x="103.18" y="38.4"> </tspan></tspan></text><text class="cls-1" transform="translate(144.06 1004.83)">is simply<tspan class="cls-2"><tspan x="0" y="19.2">dummy text</tspan><tspan x="0" y="38.4">of </tspan><tspan class="cls-3" x="18.99" y="38.4">t</tspan><tspan x="24.64" y="38.4">he prin</tspan><tspan class="cls-3" x="75.02" y="38.4">t</tspan><tspan x="80.67" y="38.4">ing</tspan><tspan class="cls-4" x="103.18" y="38.4"> </tspan></tspan></text><text class="cls-1" transform="translate(273.23 943.72)">is simply<tspan class="cls-2"><tspan x="0" y="19.2">dummy text</tspan><tspan x="0" y="38.4">of </tspan><tspan class="cls-3" x="18.99" y="38.4">t</tspan><tspan x="24.64" y="38.4">he prin</tspan><tspan class="cls-3" x="75.02" y="38.4">t</tspan><tspan x="80.67" y="38.4">ing</tspan><tspan class="cls-4" x="103.18" y="38.4"> </tspan></tspan></text><text class="cls-1" transform="translate(273.23 1004.83)">is simply<tspan class="cls-2"><tspan x="0" y="19.2">dummy text</tspan><tspan x="0" y="38.4">of </tspan><tspan class="cls-3" x="18.99" y="38.4">t</tspan><tspan x="24.64" y="38.4">he prin</tspan><tspan class="cls-3" x="75.02" y="38.4">t</tspan><tspan x="80.67" y="38.4">ing</tspan><tspan class="cls-4" x="103.18" y="38.4"> </tspan></tspan></text><text class="cls-1" transform="translate(402.4 943.72)">is simply<tspan class="cls-2"><tspan x="0" y="19.2">dummy text</tspan><tspan x="0" y="38.4">of </tspan><tspan class="cls-3" x="18.99" y="38.4">t</tspan><tspan x="24.64" y="38.4">he prin</tspan><tspan class="cls-3" x="75.02" y="38.4">t</tspan><tspan x="80.67" y="38.4">ing</tspan><tspan class="cls-4" x="103.18" y="38.4"> </tspan></tspan></text><text class="cls-1" transform="translate(402.4 1004.83)">is simply<tspan class="cls-2"><tspan x="0" y="19.2">dummy text</tspan><tspan x="0" y="38.4">of </tspan><tspan class="cls-3" x="18.99" y="38.4">t</tspan><tspan x="24.64" y="38.4">he prin</tspan><tspan class="cls-3" x="75.02" y="38.4">t</tspan><tspan x="80.67" y="38.4">ing</tspan><tspan class="cls-4" x="103.18" y="38.4"> </tspan></tspan></text><text class="cls-1" transform="translate(531.56 943.72)">is simply<tspan class="cls-2"><tspan x="0" y="19.2">dummy text</tspan><tspan x="0" y="38.4">of </tspan><tspan class="cls-3" x="18.99" y="38.4">t</tspan><tspan x="24.64" y="38.4">he prin</tspan><tspan class="cls-3" x="75.02" y="38.4">t</tspan><tspan x="80.67" y="38.4">ing</tspan><tspan class="cls-4" x="103.18" y="38.4"> </tspan></tspan></text><text class="cls-1" transform="translate(531.56 1004.83)">is simply<tspan class="cls-2"><tspan x="0" y="19.2">dummy text</tspan><tspan x="0" y="38.4">of </tspan><tspan class="cls-3" x="18.99" y="38.4">t</tspan><tspan x="24.64" y="38.4">he prin</tspan><tspan class="cls-3" x="75.02" y="38.4">t</tspan><tspan x="80.67" y="38.4">ing</tspan><tspan class="cls-4" x="103.18" y="38.4"> </tspan></tspan></text><text class="cls-1" transform="translate(660.73 943.72)">is simply<tspan class="cls-2"><tspan x="0" y="19.2">dummy text</tspan><tspan x="0" y="38.4">of </tspan><tspan class="cls-3" x="18.99" y="38.4">t</tspan><tspan x="24.64" y="38.4">he prin</tspan><tspan class="cls-3" x="75.02" y="38.4">t</tspan><tspan x="80.67" y="38.4">ing</tspan><tspan class="cls-4" x="103.18" y="38.4"> </tspan></tspan></text><text class="cls-1" transform="translate(660.73 1004.83)">is simply<tspan class="cls-2"><tspan x="0" y="19.2">dummy text</tspan><tspan x="0" y="38.4">of </tspan><tspan class="cls-3" x="18.99" y="38.4">t</tspan><tspan x="24.64" y="38.4">he prin</tspan><tspan class="cls-3" x="75.02" y="38.4">t</tspan><tspan x="80.67" y="38.4">ing</tspan><tspan class="cls-4" x="103.18" y="38.4"> </tspan></tspan></text><text class="cls-1" transform="translate(789.9 943.72)">is simply<tspan class="cls-2"><tspan x="0" y="19.2">dummy text</tspan><tspan x="0" y="38.4">of </tspan><tspan class="cls-3" x="18.99" y="38.4">t</tspan><tspan x="24.64" y="38.4">he prin</tspan><tspan class="cls-3" x="75.02" y="38.4">t</tspan><tspan x="80.67" y="38.4">ing</tspan><tspan class="cls-4" x="103.18" y="38.4"> </tspan></tspan></text><text class="cls-1" transform="translate(789.9 1004.83)">is simply<tspan class="cls-2"><tspan x="0" y="19.2">dummy text</tspan><tspan x="0" y="38.4">of </tspan><tspan class="cls-3" x="18.99" y="38.4">t</tspan><tspan x="24.64" y="38.4">he prin</tspan><tspan class="cls-3" x="75.02" y="38.4">t</tspan><tspan x="80.67" y="38.4">ing</tspan><tspan class="cls-4" x="103.18" y="38.4"> </tspan></tspan></text></g><g id="Layer_2" data-name="Layer 2"><text x="-28.1" y="-65.16"></text><text x="-28.1" y="-65.16"></text><text class="cls-5" transform="translate(0 30.74)">UPCOMING EVENTS</text><rect class="cls-6" x="2" y="125.73" width="898.9" height="965.28"/><text class="cls-7" transform="translate(368.62 102.6)">November</text><polygon points="586.35 90.35 579.63 94.3 572.9 98.25 572.9 90.35 572.9 82.45 579.63 86.4 586.35 90.35"/><polygon points="322.62 90.35 329.26 94.3 335.9 98.25 335.9 90.35 335.9 82.45 329.26 86.4 322.62 90.35"/><line class="cls-8" x1="129.9" y1="124.84" x2="129.9" y2="1089.87"/><line class="cls-8" x1="259.9" y1="124.84" x2="259.9" y2="1089.87"/><line class="cls-8" x1="387.9" y1="124.84" x2="387.9" y2="1089.87"/><line class="cls-8" x1="514.9" y1="124.84" x2="514.9" y2="1089.87"/><line class="cls-8" x1="643.9" y1="124.84" x2="643.9" y2="1089.87"/><line class="cls-8" x1="772.9" y1="124.84" x2="772.9" y2="1089.87"/><line class="cls-8" x1="2.53" y1="351.33" x2="900.9" y2="351.33"/><line class="cls-8" x1="2.53" y1="168.33" x2="900.9" y2="168.33"/><line class="cls-8" x1="2.53" y1="537.33" x2="900.9" y2="537.33"/><line class="cls-8" x1="2.53" y1="721.33" x2="900.9" y2="721.33"/><line class="cls-8" x1="2.53" y1="906.33" x2="900.9" y2="906.33"/><text class="cls-9" transform="translate(162.09 153.18)">Monday</text><text class="cls-9" transform="translate(38.8 153.18)">Sunday</text><text class="cls-10" transform="translate(408.62 153.18)">W<tspan class="cls-11" x="15.41" y="0">ednesday</tspan></text><text class="cls-12" transform="translate(295.71 153.18)">T<tspan class="cls-13" x="7.71" y="0">uesday</tspan></text><text class="cls-9" transform="translate(544.25 153.18)">Thursday</text><text class="cls-9" transform="translate(803.85 153.18)">Satu<tspan class="cls-14" x="33.18" y="0">r</tspan><tspan class="cls-11" x="39.12" y="0">day</tspan></text><text class="cls-9" transform="translate(687.24 153.18)">Friday</text></g></svg>