<svg xmlns="http://www.w3.org/2000/svg" viewBox="0 0 903.68 1366.42"><defs><style>.cls-1{fill:#333;}.cls-2{font-size:36px;fill:#fff;}.cls-2,.cls-3{font-family:Avenir-Heavy, Avenir;}.cls-3{font-size:16px;}.cls-4{font-family:Avenir-Roman, Avenir;}.cls-5{letter-spacing:-0.02em;}.cls-6{letter-spacing:0em;}.cls-7{letter-spacing:0em;}.cls-8{letter-spacing:0em;}.cls-9{letter-spacing:-0.02em;}.cls-10{letter-spacing:0em;}.cls-11{letter-spacing:-0.09em;}.cls-12{fill:#666;}</style></defs><title>03_classes_proto</title><g id="Layer_2" data-name="Layer 2"><rect class="cls-1" width="902" height="158"/><text class="cls-2" transform="translate(341.78 88.21)">HEADER ONE</text><text class="cls-3" transform="translate(1.22 548.04)">sed do eiusmod tempor inc<tspan class="cls-4"><tspan x="0" y="19.2">&quot;Lo</tspan><tspan class="cls-5" x="25.81" y="19.2">r</tspan><tspan class="cls-6" x="31.15" y="19.2">em ipsum dolor sit amet, consectetur a</tspan><tspan class="cls-7" x="311.31" y="19.2">d</tspan><tspan x="321.1" y="19.2">ipiscing e</tspan><tspan class="cls-8" x="388.94" y="19.2">l</tspan><tspan x="392.79" y="19.2">it, </tspan><tspan x="0" y="38.4">sed do eiusmod tempor inci</tspan><tspan class="cls-8" x="201.28" y="38.4">d</tspan><tspan x="211.07" y="38.4">idunt ut labo</tspan><tspan class="cls-5" x="302.96" y="38.4">r</tspan><tspan x="308.3" y="38.4">e et dolo</tspan><tspan class="cls-5" x="373.24" y="38.4">r</tspan><tspan class="cls-6" x="378.59" y="38.4">e </tspan><tspan x="0" y="57.6">magna a</tspan><tspan class="cls-8" x="61.66" y="57.6">l</tspan><tspan x="65.52" y="57.6">iqua. Ut enim ad minim veniam, quis nostrud exer</tspan><tspan x="422.08" y="57.6">-</tspan><tspan x="0" y="76.8">cita</tspan><tspan class="cls-8" x="25.49" y="76.8">t</tspan><tspan x="31.13" y="76.8">ion u</tspan><tspan class="cls-8" x="66.72" y="76.8">l</tspan><tspan x="70.57" y="76.8">lamco laboris nisi ut a</tspan><tspan class="cls-7" x="225.29" y="76.8">l</tspan><tspan x="229.15" y="76.8">iquip ex ea commodo con</tspan><tspan x="416.54" y="76.8">-</tspan><tspan x="0" y="96">sequat. Duis aute iru</tspan><tspan class="cls-9" x="147.61" y="96">r</tspan><tspan class="cls-10" x="152.96" y="96">e dolor in </tspan><tspan class="cls-9" x="226.19" y="96">r</tspan><tspan x="231.53" y="96">ep</tspan><tspan class="cls-9" x="250.21" y="96">r</tspan><tspan class="cls-10" x="255.55" y="96">ehenderit in voluptate </tspan><tspan x="0" y="115.2">ve</tspan><tspan class="cls-7" x="16.61" y="115.2">l</tspan><tspan x="20.46" y="115.2">it esse ci</tspan><tspan class="cls-7" x="81.81" y="115.2">l</tspan><tspan x="85.66" y="115.2">lum dolo</tspan><tspan class="cls-5" x="149.1" y="115.2">r</tspan><tspan class="cls-6" x="154.45" y="115.2">e eu fugiat nu</tspan><tspan class="cls-8" x="253.76" y="115.2">l</tspan><tspan x="257.61" y="115.2">la pariatu</tspan><tspan class="cls-11" x="324.59" y="115.2">r</tspan><tspan class="cls-6" x="328.75" y="115.2">. Excepteur </tspan><tspan x="0" y="134.4">sint occaecat cupidatat non p</tspan><tspan class="cls-9" x="211.69" y="134.4">r</tspan><tspan x="217.04" y="134.4">oident, sunt in culpa qui o</tspan><tspan class="cls-9" x="403.79" y="134.4">f</tspan><tspan x="408.54" y="134.4">fi</tspan><tspan x="417.42" y="134.4">-</tspan><tspan x="0" y="153.6">cia deserunt mo</tspan><tspan class="cls-8" x="115.33" y="153.6">ll</tspan><tspan x="123.04" y="153.6">it anim id est laborum.&quot;</tspan><tspan x="0" y="192">sint occaecat cupidatat non p</tspan><tspan class="cls-9" x="211.69" y="192">r</tspan><tspan x="217.04" y="192">oident, sunt in culpa qui o</tspan><tspan class="cls-9" x="403.79" y="192">f</tspan><tspan x="408.54" y="192">fi</tspan><tspan x="417.42" y="192">-</tspan><tspan x="0" y="211.2">cia deserunt mo</tspan><tspan class="cls-8" x="115.33" y="211.2">ll</tspan><tspan x="123.04" y="211.2">it anim id est laborum.&quot;</tspan></tspan></text><rect class="cls-12" x="0.26" y="189.98" width="428.21" height="318.41"/><text class="cls-3" transform="translate(474.19 548.04)">sed do eiusmod tempor inc<tspan class="cls-4"><tspan x="0" y="19.2">&quot;Lo</tspan><tspan class="cls-5" x="25.81" y="19.2">r</tspan><tspan class="cls-6" x="31.15" y="19.2">em ipsum dolor sit amet, consectetur a</tspan><tspan class="cls-7" x="311.31" y="19.2">d</tspan><tspan x="321.1" y="19.2">ipiscing e</tspan><tspan class="cls-8" x="388.94" y="19.2">l</tspan><tspan x="392.79" y="19.2">it, </tspan><tspan x="0" y="38.4">sed do eiusmod tempor inci</tspan><tspan class="cls-8" x="201.28" y="38.4">d</tspan><tspan x="211.07" y="38.4">idunt ut labo</tspan><tspan class="cls-5" x="302.96" y="38.4">r</tspan><tspan x="308.3" y="38.4">e et dolo</tspan><tspan class="cls-5" x="373.24" y="38.4">r</tspan><tspan class="cls-6" x="378.59" y="38.4">e </tspan><tspan x="0" y="57.6">magna a</tspan><tspan class="cls-8" x="61.66" y="57.6">l</tspan><tspan x="65.52" y="57.6">iqua. Ut enim ad minim veniam, quis nostrud exer</tspan><tspan x="422.08" y="57.6">-</tspan><tspan x="0" y="76.8">cita</tspan><tspan class="cls-8" x="25.49" y="76.8">t</tspan><tspan x="31.13" y="76.8">ion u</tspan><tspan class="cls-8" x="66.72" y="76.8">l</tspan><tspan x="70.57" y="76.8">lamco laboris nisi ut a</tspan><tspan class="cls-7" x="225.29" y="76.8">l</tspan><tspan x="229.15" y="76.8">iquip ex ea commodo con</tspan><tspan x="416.54" y="76.8">-</tspan><tspan x="0" y="96">sequat. Duis aute iru</tspan><tspan class="cls-9" x="147.61" y="96">r</tspan><tspan class="cls-10" x="152.96" y="96">e dolor in </tspan><tspan class="cls-9" x="226.19" y="96">r</tspan><tspan x="231.53" y="96">ep</tspan><tspan class="cls-9" x="250.21" y="96">r</tspan><tspan class="cls-10" x="255.55" y="96">ehenderit in voluptate </tspan><tspan x="0" y="115.2">ve</tspan><tspan class="cls-7" x="16.61" y="115.2">l</tspan><tspan x="20.46" y="115.2">it esse ci</tspan><tspan class="cls-7" x="81.81" y="115.2">l</tspan><tspan x="85.66" y="115.2">lum dolo</tspan><tspan class="cls-5" x="149.1" y="115.2">r</tspan><tspan class="cls-6" x="154.45" y="115.2">e eu fugiat nu</tspan><tspan class="cls-8" x="253.76" y="115.2">l</tspan><tspan x="257.61" y="115.2">la pariatu</tspan><tspan class="cls-11" x="324.59" y="115.2">r</tspan><tspan class="cls-6" x="328.75" y="115.2">. Excepteur </tspan><tspan x="0" y="134.4">sint occaecat cupidatat non p</tspan><tspan class="cls-9" x="211.69" y="134.4">r</tspan><tspan x="217.04" y="134.4">oident, sunt in culpa qui o</tspan><tspan class="cls-9" x="403.79" y="134.4">f</tspan><tspan x="408.54" y="134.4">fi</tspan><tspan x="417.42" y="134.4">-</tspan><tspan x="0" y="153.6">cia deserunt mo</tspan><tspan class="cls-8" x="115.33" y="153.6">ll</tspan><tspan x="123.04" y="153.6">it anim id est laborum.&quot;</tspan><tspan x="0" y="192">sint occaecat cupidatat non p</tspan><tspan class="cls-9" x="211.69" y="192">r</tspan><tspan x="217.04" y="192">oident, sunt in culpa qui o</tspan><tspan class="cls-9" x="403.79" y="192">f</tspan><tspan x="408.54" y="192">fi</tspan><tspan x="417.42" y="192">-</tspan><tspan x="0" y="211.2">cia deserunt mo</tspan><tspan class="cls-8" x="115.33" y="211.2">ll</tspan><tspan x="123.04" y="211.2">it anim id est laborum.&quot;</tspan></tspan></text><rect class="cls-12" x="472.24" y="189.98" width="428.21" height="318.41"/><text class="cls-3" transform="translate(1.22 1145.52)">sed do eiusmod tempor inc<tspan class="cls-4"><tspan x="0" y="19.2">&quot;Lo</tspan><tspan class="cls-5" x="25.81" y="19.2">r</tspan><tspan class="cls-6" x="31.15" y="19.2">em ipsum dolor sit amet, consectetur a</tspan><tspan class="cls-7" x="311.31" y="19.2">d</tspan><tspan x="321.1" y="19.2">ipiscing e</tspan><tspan class="cls-8" x="388.94" y="19.2">l</tspan><tspan x="392.79" y="19.2">it, </tspan><tspan x="0" y="38.4">sed do eiusmod tempor inci</tspan><tspan class="cls-8" x="201.28" y="38.4">d</tspan><tspan x="211.07" y="38.4">idunt ut labo</tspan><tspan class="cls-5" x="302.96" y="38.4">r</tspan><tspan x="308.3" y="38.4">e et dolo</tspan><tspan class="cls-5" x="373.24" y="38.4">r</tspan><tspan class="cls-6" x="378.59" y="38.4">e </tspan><tspan x="0" y="57.6">magna a</tspan><tspan class="cls-8" x="61.66" y="57.6">l</tspan><tspan x="65.52" y="57.6">iqua. Ut enim ad minim veniam, quis nostrud exer</tspan><tspan x="422.08" y="57.6">-</tspan><tspan x="0" y="76.8">cita</tspan><tspan class="cls-8" x="25.49" y="76.8">t</tspan><tspan x="31.13" y="76.8">ion u</tspan><tspan class="cls-8" x="66.72" y="76.8">l</tspan><tspan x="70.57" y="76.8">lamco laboris nisi ut a</tspan><tspan class="cls-7" x="225.29" y="76.8">l</tspan><tspan x="229.15" y="76.8">iquip ex ea commodo con</tspan><tspan x="416.54" y="76.8">-</tspan><tspan x="0" y="96">sequat. Duis aute iru</tspan><tspan class="cls-9" x="147.61" y="96">r</tspan><tspan class="cls-10" x="152.96" y="96">e dolor in </tspan><tspan class="cls-9" x="226.19" y="96">r</tspan><tspan x="231.53" y="96">ep</tspan><tspan class="cls-9" x="250.21" y="96">r</tspan><tspan class="cls-10" x="255.55" y="96">ehenderit in voluptate </tspan><tspan x="0" y="115.2">ve</tspan><tspan class="cls-7" x="16.61" y="115.2">l</tspan><tspan x="20.46" y="115.2">it esse ci</tspan><tspan class="cls-7" x="81.81" y="115.2">l</tspan><tspan x="85.66" y="115.2">lum dolo</tspan><tspan class="cls-5" x="149.1" y="115.2">r</tspan><tspan class="cls-6" x="154.45" y="115.2">e eu fugiat nu</tspan><tspan class="cls-8" x="253.76" y="115.2">l</tspan><tspan x="257.61" y="115.2">la pariatu</tspan><tspan class="cls-11" x="324.59" y="115.2">r</tspan><tspan class="cls-6" x="328.75" y="115.2">. Excepteur </tspan><tspan x="0" y="134.4">sint occaecat cupidatat non p</tspan><tspan class="cls-9" x="211.69" y="134.4">r</tspan><tspan x="217.04" y="134.4">oident, sunt in culpa qui o</tspan><tspan class="cls-9" x="403.79" y="134.4">f</tspan><tspan x="408.54" y="134.4">fi</tspan><tspan x="417.42" y="134.4">-</tspan><tspan x="0" y="153.6">cia deserunt mo</tspan><tspan class="cls-8" x="115.33" y="153.6">ll</tspan><tspan x="123.04" y="153.6">it anim id est laborum.&quot;</tspan><tspan x="0" y="192">sint occaecat cupidatat non p</tspan><tspan class="cls-9" x="211.69" y="192">r</tspan><tspan x="217.04" y="192">oident, sunt in culpa qui o</tspan><tspan class="cls-9" x="403.79" y="192">f</tspan><tspan x="408.54" y="192">fi</tspan><tspan x="417.42" y="192">-</tspan><tspan x="0" y="211.2">cia deserunt mo</tspan><tspan class="cls-8" x="115.33" y="211.2">ll</tspan><tspan x="123.04" y="211.2">it anim id est laborum.&quot;</tspan></tspan></text><rect class="cls-12" x="0.26" y="787.46" width="428.21" height="318.41"/><text class="cls-3" transform="translate(473.19 1145.52)">sed do eiusmod tempor inc<tspan class="cls-4"><tspan x="0" y="19.2">&quot;Lo</tspan><tspan class="cls-5" x="25.81" y="19.2">r</tspan><tspan class="cls-6" x="31.15" y="19.2">em ipsum dolor sit amet, consectetur a</tspan><tspan class="cls-7" x="311.31" y="19.2">d</tspan><tspan x="321.1" y="19.2">ipiscing e</tspan><tspan class="cls-8" x="388.94" y="19.2">l</tspan><tspan x="392.79" y="19.2">it, </tspan><tspan x="0" y="38.4">sed do eiusmod tempor inci</tspan><tspan class="cls-8" x="201.28" y="38.4">d</tspan><tspan x="211.07" y="38.4">idunt ut labo</tspan><tspan class="cls-5" x="302.96" y="38.4">r</tspan><tspan x="308.3" y="38.4">e et dolo</tspan><tspan class="cls-5" x="373.24" y="38.4">r</tspan><tspan class="cls-6" x="378.59" y="38.4">e </tspan><tspan x="0" y="57.6">magna a</tspan><tspan class="cls-8" x="61.66" y="57.6">l</tspan><tspan x="65.52" y="57.6">iqua. Ut enim ad minim veniam, quis nostrud exer</tspan><tspan x="422.08" y="57.6">-</tspan><tspan x="0" y="76.8">cita</tspan><tspan class="cls-8" x="25.49" y="76.8">t</tspan><tspan x="31.13" y="76.8">ion u</tspan><tspan class="cls-8" x="66.72" y="76.8">l</tspan><tspan x="70.57" y="76.8">lamco laboris nisi ut a</tspan><tspan class="cls-7" x="225.29" y="76.8">l</tspan><tspan x="229.15" y="76.8">iquip ex ea commodo con</tspan><tspan x="416.54" y="76.8">-</tspan><tspan x="0" y="96">sequat. Duis aute iru</tspan><tspan class="cls-9" x="147.61" y="96">r</tspan><tspan class="cls-10" x="152.96" y="96">e dolor in </tspan><tspan class="cls-9" x="226.19" y="96">r</tspan><tspan x="231.53" y="96">ep</tspan><tspan class="cls-9" x="250.21" y="96">r</tspan><tspan class="cls-10" x="255.55" y="96">ehenderit in voluptate </tspan><tspan x="0" y="115.2">ve</tspan><tspan class="cls-7" x="16.61" y="115.2">l</tspan><tspan x="20.46" y="115.2">it esse ci</tspan><tspan class="cls-7" x="81.81" y="115.2">l</tspan><tspan x="85.66" y="115.2">lum dolo</tspan><tspan class="cls-5" x="149.1" y="115.2">r</tspan><tspan class="cls-6" x="154.45" y="115.2">e eu fugiat nu</tspan><tspan class="cls-8" x="253.76" y="115.2">l</tspan><tspan x="257.61" y="115.2">la pariatu</tspan><tspan class="cls-11" x="324.59" y="115.2">r</tspan><tspan class="cls-6" x="328.75" y="115.2">. Excepteur </tspan><tspan x="0" y="134.4">sint occaecat cupidatat non p</tspan><tspan class="cls-9" x="211.69" y="134.4">r</tspan><tspan x="217.04" y="134.4">oident, sunt in culpa qui o</tspan><tspan class="cls-9" x="403.79" y="134.4">f</tspan><tspan x="408.54" y="134.4">fi</tspan><tspan x="417.42" y="134.4">-</tspan><tspan x="0" y="153.6">cia deserunt mo</tspan><tspan class="cls-8" x="115.33" y="153.6">ll</tspan><tspan x="123.04" y="153.6">it anim id est laborum.&quot;</tspan><tspan x="0" y="192">sint occaecat cupidatat non p</tspan><tspan class="cls-9" x="211.69" y="192">r</tspan><tspan x="217.04" y="192">oident, sunt in culpa qui o</tspan><tspan class="cls-9" x="403.79" y="192">f</tspan><tspan x="408.54" y="192">fi</tspan><tspan x="417.42" y="192">-</tspan><tspan x="0" y="211.2">cia deserunt mo</tspan><tspan class="cls-8" x="115.33" y="211.2">ll</tspan><tspan x="123.04" y="211.2">it anim id est laborum.&quot;</tspan></tspan></text><rect class="cls-12" x="471.24" y="787.46" width="428.21" height="318.41"/></g></svg>