<svg xmlns="http://www.w3.org/2000/svg" viewBox="0 0 902.23 896.81"><defs><style>.cls-1{font-size:36px;}.cls-1,.cls-15,.cls-2{font-family:Avenir-Heavy, Avenir;}.cls-2{font-size:16px;}.cls-3{font-family:Avenir-Roman, Avenir;}.cls-4{letter-spacing:-0.02em;}.cls-5{letter-spacing:0em;}.cls-6{letter-spacing:0em;}.cls-7{letter-spacing:0em;}.cls-8{letter-spacing:-0.02em;}.cls-9{fill:#666;}.cls-10{font-size:65.1px;fill:#fff;font-family:MyriadPro-Regular, Myriad Pro;}.cls-11{letter-spacing:-0.01em;}.cls-12,.cls-13{fill:none;stroke:#000;stroke-miterlimit:10;}.cls-12{stroke-width:1.28px;}.cls-13{stroke-width:1.11px;}.cls-14{fill:#a3a3a3;}.cls-15{font-size:18px;}</style></defs><title>05_contact</title><g id="Layer_2" data-name="Layer 2"><text x="-28" y="-38.97"></text><text class="cls-1" transform="translate(0 30.74)">HEADER 1</text><text class="cls-2" transform="translate(81.56 74.81)">sed do eiu<tspan class="cls-3"><tspan x="0" y="19.2">&quot;Lo</tspan><tspan class="cls-4" x="25.81" y="19.2">r</tspan><tspan class="cls-5" x="31.15" y="19.2">em ipsum dolor sit amet, </tspan></tspan><tspan x="0" y="57.6">sed do eiusmod </tspan><tspan class="cls-3"><tspan x="0" y="76.8">&quot;Lo</tspan><tspan class="cls-4" x="25.81" y="76.8">r</tspan><tspan class="cls-5" x="31.15" y="76.8">em ipsum dolor sit amet, </tspan></tspan><tspan x="0" y="115.2">sed do eiusmod </tspan><tspan class="cls-3"><tspan x="0" y="134.4">&quot;Lo</tspan><tspan class="cls-4" x="25.81" y="134.4">r</tspan><tspan class="cls-5" x="31.15" y="134.4">em ipsum dolor sit amet,</tspan><tspan x="0" y="153.6">Lo</tspan><tspan class="cls-4" x="17.5" y="153.6">r</tspan><tspan class="cls-5" x="22.85" y="153.6">em ipsum dolor sit amet,</tspan></tspan></text><text class="cls-2" transform="translate(81.06 444.81)">sed do eiu<tspan class="cls-3"><tspan x="0" y="19.2">Lo</tspan><tspan class="cls-4" x="17.5" y="19.2">r</tspan><tspan class="cls-5" x="22.85" y="19.2">em ipsum dolor sit amet, </tspan></tspan><tspan x="0" y="57.6">sed do eiu</tspan><tspan class="cls-3"><tspan x="0" y="76.8">Lo</tspan><tspan class="cls-4" x="17.5" y="76.8">r</tspan><tspan class="cls-5" x="22.85" y="76.8">em ipsum dolor sit amet, </tspan></tspan><tspan x="0" y="115.2">sed do eised do eiuu</tspan><tspan class="cls-3"><tspan x="0" y="134.4">Lo</tspan><tspan class="cls-4" x="17.5" y="134.4">r</tspan><tspan class="cls-5" x="22.85" y="134.4">em ipsum dolor sit amet, </tspan></tspan><tspan x="0" y="172.8">sed do eiusmod tempor inc</tspan><tspan class="cls-3"><tspan x="0" y="192">Lo</tspan><tspan class="cls-4" x="17.5" y="192">r</tspan><tspan class="cls-5" x="22.85" y="192">em ipsum dolor sit amet, consectetur a</tspan><tspan class="cls-6" x="303" y="192">d</tspan><tspan x="312.79" y="192">ipi</tspan></tspan><tspan x="0" y="230.4">sed do eiusmod tempor inc</tspan><tspan class="cls-3"><tspan x="0" y="249.6">Lo</tspan><tspan class="cls-4" x="17.5" y="249.6">r</tspan><tspan class="cls-5" x="22.85" y="249.6">em ipsum dolor sit amet, consectetur a</tspan><tspan class="cls-6" x="303" y="249.6">d</tspan><tspan x="312.79" y="249.6">ipi</tspan></tspan><tspan x="0" y="288">sed do eiusmod tempor inc</tspan><tspan class="cls-3"><tspan x="0" y="307.2">Lo</tspan><tspan class="cls-4" x="17.5" y="307.2">r</tspan><tspan class="cls-5" x="22.85" y="307.2">em ipsum dolor sit amet, consectetur a</tspan><tspan class="cls-6" x="303" y="307.2">d</tspan><tspan x="312.79" y="307.2">ipi</tspan></tspan><tspan x="0" y="345.6">sed do eiusmod tempor inc</tspan><tspan class="cls-3"><tspan x="0" y="364.8">Lo</tspan><tspan class="cls-4" x="17.5" y="364.8">r</tspan><tspan class="cls-5" x="22.85" y="364.8">em ipsum dolor sit amet, consectetur a</tspan><tspan class="cls-6" x="303" y="364.8">d</tspan><tspan x="312.79" y="364.8">ipi </tspan></tspan></text><text class="cls-2" transform="translate(475.06 445.81)">sed do eiusmod tempor inci<tspan class="cls-7" x="209.15" y="0">d</tspan><tspan x="219.24" y="0">idunt ut labo</tspan><tspan class="cls-8" x="315.54" y="0">r</tspan><tspan x="321.48" y="0">e </tspan><tspan x="0" y="19.2">et dolo</tspan><tspan class="cls-4" x="53.9" y="19.2">r</tspan><tspan x="59.84" y="19.2">e magna a</tspan><tspan class="cls-7" x="137.45" y="19.2">l</tspan><tspan x="141.63" y="19.2">iqua. Ut enim ad minim </tspan><tspan x="0" y="38.4">veniam, quis nostrud exe</tspan><tspan class="cls-4" x="187.53" y="38.4">r</tspan><tspan x="193.47" y="38.4">cita</tspan><tspan class="cls-6" x="220.15" y="38.4">t</tspan><tspan x="226.39" y="38.4">ion u</tspan><tspan class="cls-6" x="263.42" y="38.4">l</tspan><tspan x="267.59" y="38.4">lamco </tspan><tspan x="0" y="57.6">laboris nisi ut a</tspan><tspan class="cls-7" x="112.89" y="57.6">l</tspan><tspan x="117.07" y="57.6">iquip ex ea commodo conse</tspan><tspan x="327.08" y="57.6">-</tspan><tspan x="0" y="76.8">quat. Duis aute nim id est laborum.&quot;</tspan></text><rect class="cls-9" x="473.93" y="63.53" width="350.63" height="255.54"/><text class="cls-10" transform="translate(571.97 210.41)"><tspan class="cls-11">M</tspan><tspan x="51.69" y="0">AP</tspan></text><text x="-28" y="-38.97"></text><text x="-28" y="-38.97"></text><text class="cls-2" transform="translate(82.01 283.96)">sed do eiusmodsed do eiusmod</text><rect class="cls-12" x="2.06" y="387.54" width="899.52" height="508.63"/><rect class="cls-13" x="474" y="537.89" width="350.21" height="275.87"/><rect class="cls-14" x="676.49" y="838.43" width="148.89" height="31.3" rx="8.43" ry="8.43"/><text class="cls-15" transform="translate(707.8 859.37)">Send Now</text><circle cx="97.98" cy="311" r="12.54"/><circle cx="129.48" cy="311" r="12.54"/><circle cx="159.48" cy="311" r="12.54"/><circle cx="190.98" cy="311" r="12.54"/><text x="-28" y="-38.97"></text><text x="-28" y="-38.97"></text></g></svg>