<?xml version="1.0" encoding="utf-8"?>
<!-- Generator: Adobe Illustrator 20.1.0, SVG Export Plug-In . SVG Version: 6.00 Build 0)  -->
<svg version="1.1" xmlns="http://www.w3.org/2000/svg" xmlns:xlink="http://www.w3.org/1999/xlink" x="0px" y="0px"
	 viewBox="0 0 2560 359.9" style="enable-background:new 0 0 2560 359.9;" xml:space="preserve">
<style type="text/css">
	.st0{display:none;}
	.st1{fill:#FF0071;}
	.st2{fill:#FF8BDF;}
</style>
<g id="Layer_1" class="st0">
	<title>grid1280</title>
	
		<image style="display:inline;overflow:visible;enable-background:new    ;" width="2560" height="2000" xlink:href="9372045D36D4FA77.jpg"  transform="matrix(0.5 0 0 0.18 -58.6703 -0.4336)">
	</image>
</g>
<g id="Layer_2">
	<rect x="58.9" class="st1" width="14" height="360"/>
	<rect x="21.9" class="st2" width="37" height="360"/>
	<g>
		<rect x="141.6" class="st1" width="14" height="360"/>
		<rect x="90.6" class="st1" width="14" height="360"/>
		<rect x="104.6" class="st2" width="37" height="360"/>
	</g>
	<g>
		<rect x="224.3" class="st1" width="14" height="360"/>
		<rect x="173.3" class="st1" width="14" height="360"/>
		<rect x="187.3" class="st2" width="37" height="360"/>
	</g>
	<g>
		<rect x="306.9" class="st1" width="14" height="360"/>
		<rect x="255.9" class="st1" width="14" height="360"/>
		<rect x="269.9" class="st2" width="37" height="360"/>
	</g>
	<g>
		<rect x="389.6" class="st1" width="14" height="360"/>
		<rect x="338.6" class="st1" width="14" height="360"/>
		<rect x="352.6" class="st2" width="37" height="360"/>
	</g>
	<g>
		<rect x="472.3" class="st1" width="14" height="360"/>
		<rect x="421.3" class="st1" width="14" height="360"/>
		<rect x="435.3" class="st2" width="37" height="360"/>
	</g>
	<g>
		<rect x="554.9" class="st1" width="14" height="360"/>
		<rect x="503.9" class="st1" width="14" height="360"/>
		<rect x="517.9" class="st2" width="37" height="360"/>
	</g>
	<g>
		<rect x="637.6" class="st1" width="14" height="360"/>
		<rect x="586.6" class="st1" width="14" height="360"/>
		<rect x="600.6" class="st2" width="37" height="360"/>
	</g>
	<g>
		<rect x="720.3" class="st1" width="14" height="360"/>
		<rect x="669.3" class="st1" width="14" height="360"/>
		<rect x="683.3" class="st2" width="37" height="360"/>
	</g>
	<g>
		<rect x="802.9" class="st1" width="14" height="360"/>
		<rect x="751.9" class="st1" width="14" height="360"/>
		<rect x="765.9" class="st2" width="37" height="360"/>
	</g>
	<g>
		<rect x="885.6" class="st1" width="14" height="360"/>
		<rect x="834.6" class="st1" width="14" height="360"/>
		<rect x="848.6" class="st2" width="37" height="360"/>
	</g>
	<g>
		<rect x="968.3" class="st1" width="14" height="360"/>
		<rect x="917.3" class="st1" width="14" height="360"/>
		<rect x="931.3" class="st2" width="37" height="360"/>
	</g>
	<g>
		<rect x="1050.9" class="st1" width="14" height="360"/>
		<rect x="999.9" class="st1" width="14" height="360"/>
		<rect x="1013.9" class="st2" width="37" height="360"/>
	</g>
	<g>
		<rect x="1133.6" class="st1" width="14" height="360"/>
		<rect x="1082.6" class="st1" width="14" height="360"/>
		<rect x="1096.6" class="st2" width="37" height="360"/>
	</g>
	<g>
		<rect x="1216.3" class="st1" width="14" height="360"/>
		<rect x="1165.3" class="st1" width="14" height="360"/>
		<rect x="1179.3" class="st2" width="37" height="360"/>
	</g>
	<rect x="1247.9" class="st1" width="14" height="360"/>
	<rect x="1261.9" class="st2" width="37" height="360"/>
	<rect x="1298.8" class="st1" width="14" height="360"/>
	<rect x="1261.8" class="st2" width="37" height="360"/>
	<g>
		<rect x="1381.4" class="st1" width="14" height="360"/>
		<rect x="1330.4" class="st1" width="14" height="360"/>
		<rect x="1344.4" class="st2" width="37" height="360"/>
	</g>
	<g>
		<rect x="1464.1" class="st1" width="14" height="360"/>
		<rect x="1413.1" class="st1" width="14" height="360"/>
		<rect x="1427.1" class="st2" width="37" height="360"/>
	</g>
	<g>
		<rect x="1546.8" class="st1" width="14" height="360"/>
		<rect x="1495.8" class="st1" width="14" height="360"/>
		<rect x="1509.8" class="st2" width="37" height="360"/>
	</g>
	<g>
		<rect x="1629.4" class="st1" width="14" height="360"/>
		<rect x="1578.4" class="st1" width="14" height="360"/>
		<rect x="1592.4" class="st2" width="37" height="360"/>
	</g>
	<g>
		<rect x="1712.1" class="st1" width="14" height="360"/>
		<rect x="1661.1" class="st1" width="14" height="360"/>
		<rect x="1675.1" class="st2" width="37" height="360"/>
	</g>
	<g>
		<rect x="1794.8" class="st1" width="14" height="360"/>
		<rect x="1743.8" class="st1" width="14" height="360"/>
		<rect x="1757.8" class="st2" width="37" height="360"/>
	</g>
	<g>
		<rect x="1877.4" class="st1" width="14" height="360"/>
		<rect x="1826.4" class="st1" width="14" height="360"/>
		<rect x="1840.4" class="st2" width="37" height="360"/>
	</g>
	<g>
		<rect x="1960.1" class="st1" width="14" height="360"/>
		<rect x="1909.1" class="st1" width="14" height="360"/>
		<rect x="1923.1" class="st2" width="37" height="360"/>
	</g>
	<g>
		<rect x="2042.8" class="st1" width="14" height="360"/>
		<rect x="1991.8" class="st1" width="14" height="360"/>
		<rect x="2005.8" class="st2" width="37" height="360"/>
	</g>
	<g>
		<rect x="2125.4" class="st1" width="14" height="360"/>
		<rect x="2074.4" class="st1" width="14" height="360"/>
		<rect x="2088.4" class="st2" width="37" height="360"/>
	</g>
	<g>
		<rect x="2208.1" class="st1" width="14" height="360"/>
		<rect x="2157.1" class="st1" width="14" height="360"/>
		<rect x="2171.1" class="st2" width="37" height="360"/>
	</g>
	<g>
		<rect x="2290.8" class="st1" width="14" height="360"/>
		<rect x="2239.8" class="st1" width="14" height="360"/>
		<rect x="2253.8" class="st2" width="37" height="360"/>
	</g>
	<g>
		<rect x="2373.4" class="st1" width="14" height="360"/>
		<rect x="2322.4" class="st1" width="14" height="360"/>
		<rect x="2336.4" class="st2" width="37" height="360"/>
	</g>
	<g>
		<rect x="2456.1" class="st1" width="14" height="360"/>
		<rect x="2405.1" class="st1" width="14" height="360"/>
		<rect x="2419.1" class="st2" width="37" height="360"/>
	</g>
	<rect x="2487.8" class="st1" width="14" height="360"/>
	<rect x="2501.8" class="st2" width="37" height="360"/>
</g>
</svg>
