<?xml version="1.0" encoding="utf-8"?>
<!-- Generator: Adobe Illustrator 20.1.0, SVG Export Plug-In . SVG Version: 6.00 Build 0)  -->
<svg version="1.1" id="Layer_1" xmlns="http://www.w3.org/2000/svg" xmlns:xlink="http://www.w3.org/1999/xlink" x="0px" y="0px"
	 viewBox="0 0 902 800.5" style="enable-background:new 0 0 902 800.5;" xml:space="preserve">
<style type="text/css">
	.st0{font-family:'Avenir-Heavy';}
	.st1{font-size:24px;}
	.st2{font-family:'Avenir-Black';}
	.st3{font-size:14px;}
	.st4{font-family:'Avenir-Roman';}
	.st5{fill:none;stroke:#000000;stroke-width:1.03;stroke-miterlimit:10;}
	.st6{fill:none;stroke:#000000;stroke-width:1.12;stroke-miterlimit:10;}
	.st7{font-size:36px;}
	.st8{font-size:16px;}
	.st9{letter-spacing:-1;}
	.st10{font-size:18px;}
	.st11{fill:#666666;}
	.st12{fill:none;stroke:#F2F2F2;stroke-width:5.01;stroke-miterlimit:10;}
	.st13{fill:#F2F2F2;}
</style>
<title>01_home_proto</title>
<g id="Layer_2">
	<text transform="matrix(1 0 0 1 631 461.79)" class="st0 st1">HEADER 2</text>
	<text transform="matrix(1 0 0 1 631 72.6832)" class="st0 st1">HEADER 2</text>
	<text transform="matrix(1 0 0 1 631 100.6832)" class="st2 st3">Lo</text>
	<text transform="matrix(1 0 0 1 647.06 100.6832)" class="st2 st3">r</text>
	<text transform="matrix(1 0 0 1 652.5 100.6832)" class="st2 st3">em Ipsum:</text>
	<text transform="matrix(1 0 0 1 631 120.6832)" class="st4 st3">is simply dummy text of </text>
	<text transform="matrix(1 0 0 1 784 120.6832)" class="st4 st3">t</text>
	<text transform="matrix(1 0 0 1 788.94 120.6832)" class="st4 st3">he prin</text>
	<text transform="matrix(1 0 0 1 833.03 120.6832)" class="st4 st3">t</text>
	<text transform="matrix(1 0 0 1 837.97 120.6832)" class="st4 st3">ing and </text>
	<text transform="matrix(1 0 0 1 631 140.6832)" class="st4 st3">typese</text>
	<text transform="matrix(1 0 0 1 672.76 140.6832)" class="st4 st3">tt</text>
	<text transform="matrix(1 0 0 1 682.64 140.6832)" class="st4 st3">ing industr</text>
	<text transform="matrix(1 0 0 1 749.54 140.6832)" class="st4 st3">y</text>
	<text transform="matrix(1 0 0 1 755.25 140.6832)" class="st4 st3">. Lo</text>
	<text transform="matrix(1 0 0 1 778.35 140.6832)" class="st4 st3">r</text>
	<text transform="matrix(1 0 0 1 783.02 140.6832)" class="st4 st3">em Ipsum has </text>
	<text transform="matrix(1 0 0 1 631 160.6832)" class="st4 st3">been </text>
	<text transform="matrix(1 0 0 1 666.8 160.6832)" class="st4 st3">t</text>
	<text transform="matrix(1 0 0 1 671.74 160.6832)" class="st4 st3">he industry&apos;s</text>
	<text transform="matrix(1 0 0 1 631 200.6832)" class="st2 st3">Lo</text>
	<text transform="matrix(1 0 0 1 647.06 200.6832)" class="st2 st3">r</text>
	<text transform="matrix(1 0 0 1 652.5 200.6832)" class="st2 st3">em Ipsum:</text>
	<text transform="matrix(1 0 0 1 631 220.6832)" class="st4 st3">is simply dummy text of </text>
	<text transform="matrix(1 0 0 1 784 220.6832)" class="st4 st3">t</text>
	<text transform="matrix(1 0 0 1 788.94 220.6832)" class="st4 st3">he prin</text>
	<text transform="matrix(1 0 0 1 833.03 220.6832)" class="st4 st3">t</text>
	<text transform="matrix(1 0 0 1 837.97 220.6832)" class="st4 st3">ing and </text>
	<text transform="matrix(1 0 0 1 631 240.6832)" class="st4 st3">typese</text>
	<text transform="matrix(1 0 0 1 672.76 240.6832)" class="st4 st3">tt</text>
	<text transform="matrix(1 0 0 1 682.64 240.6832)" class="st4 st3">ing industr</text>
	<text transform="matrix(1 0 0 1 749.54 240.6832)" class="st4 st3">y</text>
	<text transform="matrix(1 0 0 1 755.25 240.6832)" class="st4 st3">. Lo</text>
	<text transform="matrix(1 0 0 1 778.35 240.6832)" class="st4 st3">r</text>
	<text transform="matrix(1 0 0 1 783.02 240.6832)" class="st4 st3">em Ipsum has </text>
	<text transform="matrix(1 0 0 1 631 260.6832)" class="st4 st3">been </text>
	<text transform="matrix(1 0 0 1 666.8 260.6832)" class="st4 st3">t</text>
	<text transform="matrix(1 0 0 1 671.74 260.6832)" class="st4 st3">he industry&apos;s</text>
	<text transform="matrix(1 0 0 1 631 300.6832)" class="st2 st3">Lo</text>
	<text transform="matrix(1 0 0 1 647.06 300.6832)" class="st2 st3">r</text>
	<text transform="matrix(1 0 0 1 652.5 300.6832)" class="st2 st3">em Ipsum:</text>
	<text transform="matrix(1 0 0 1 631 320.6832)" class="st4 st3">is simply dummy text of </text>
	<text transform="matrix(1 0 0 1 784 320.6832)" class="st4 st3">t</text>
	<text transform="matrix(1 0 0 1 788.94 320.6832)" class="st4 st3">he prin</text>
	<text transform="matrix(1 0 0 1 833.03 320.6832)" class="st4 st3">t</text>
	<text transform="matrix(1 0 0 1 837.97 320.6832)" class="st4 st3">ing and </text>
	<text transform="matrix(1 0 0 1 631 340.6832)" class="st4 st3">typese</text>
	<text transform="matrix(1 0 0 1 672.76 340.6832)" class="st4 st3">tt</text>
	<text transform="matrix(1 0 0 1 682.64 340.6832)" class="st4 st3">ing industr</text>
	<text transform="matrix(1 0 0 1 749.54 340.6832)" class="st4 st3">y</text>
	<text transform="matrix(1 0 0 1 755.25 340.6832)" class="st4 st3">. Lo</text>
	<text transform="matrix(1 0 0 1 778.35 340.6832)" class="st4 st3">r</text>
	<text transform="matrix(1 0 0 1 783.02 340.6832)" class="st4 st3">em Ipsum has </text>
	<text transform="matrix(1 0 0 1 631 360.6832)" class="st4 st3">been </text>
	<text transform="matrix(1 0 0 1 666.8 360.6832)" class="st4 st3">t</text>
	<text transform="matrix(1 0 0 1 671.74 360.6832)" class="st4 st3">he industry&apos;s</text>
	<rect x="630" y="477.9" class="st5" width="270" height="207.6"/>
	<rect x="652.1" y="500" class="st6" width="21.4" height="21.4"/>
	<rect x="687.5" y="500" class="st6" width="21.4" height="21.4"/>
	<rect x="722.2" y="500" class="st6" width="21.4" height="21.4"/>
	<rect x="756" y="500" class="st6" width="21.4" height="21.4"/>
	<rect x="790.2" y="500" class="st6" width="21.4" height="21.4"/>
	<rect x="822.8" y="500" class="st6" width="21.4" height="21.4"/>
	<rect x="857.8" y="500" class="st6" width="21.4" height="21.4"/>
	<rect x="652.1" y="537.1" class="st6" width="21.4" height="21.4"/>
	<rect x="687.5" y="537.1" class="st6" width="21.4" height="21.4"/>
	<rect x="722.2" y="537.1" class="st6" width="21.4" height="21.4"/>
	<rect x="756" y="537.1" class="st6" width="21.4" height="21.4"/>
	<rect x="790.2" y="537.1" class="st6" width="21.4" height="21.4"/>
	<rect x="822.8" y="537.1" class="st6" width="21.4" height="21.4"/>
	<rect x="857.8" y="537.1" class="st6" width="21.4" height="21.4"/>
	<rect x="652.1" y="573.1" class="st6" width="21.4" height="21.4"/>
	<rect x="687.5" y="573.1" class="st6" width="21.4" height="21.4"/>
	<rect x="722.2" y="573.1" class="st6" width="21.4" height="21.4"/>
	<rect x="756" y="573.1" class="st6" width="21.4" height="21.4"/>
	<rect x="790.2" y="573.1" class="st6" width="21.4" height="21.4"/>
	<rect x="822.8" y="573.1" class="st6" width="21.4" height="21.4"/>
	<rect x="857.8" y="573.1" class="st6" width="21.4" height="21.4"/>
	<rect x="652.1" y="610.2" class="st6" width="21.4" height="21.4"/>
	<rect x="687.5" y="610.2" class="st6" width="21.4" height="21.4"/>
	<rect x="722.2" y="610.2" class="st6" width="21.4" height="21.4"/>
	<rect x="756" y="610.2" class="st6" width="21.4" height="21.4"/>
	<rect x="790.2" y="610.2" class="st6" width="21.4" height="21.4"/>
	<rect x="822.8" y="610.2" class="st6" width="21.4" height="21.4"/>
	<rect x="857.8" y="610.2" class="st6" width="21.4" height="21.4"/>
	<rect x="652.1" y="646.2" class="st6" width="21.4" height="21.4"/>
	<rect x="687.5" y="646.2" class="st6" width="21.4" height="21.4"/>
	<rect x="722.2" y="646.2" class="st6" width="21.4" height="21.4"/>
	<rect x="756" y="646.2" class="st6" width="21.4" height="21.4"/>
	<rect x="790.2" y="646.2" class="st6" width="21.4" height="21.4"/>
	<rect x="822.8" y="646.2" class="st6" width="21.4" height="21.4"/>
	<rect x="857.8" y="646.2" class="st6" width="21.4" height="21.4"/>
	<text transform="matrix(1 0 0 1 0 30.74)" class="st0 st7">HEADER 1</text>
	<text transform="matrix(1 0 0 1 0 66.74)" class="st4 st8">&quot;Lo</text>
	<text transform="matrix(1 0 0 1 25.81 66.74)" class="st4 st8">r</text>
	<text transform="matrix(1 0 0 1 31.15 66.74)" class="st4 st8">em ipsum dolor sit amet, consectetur a</text>
	<text transform="matrix(1 0 0 1 311.31 66.74)" class="st4 st8">d</text>
	<text transform="matrix(1 0 0 1 321.1 66.74)" class="st4 st8">ipiscing e</text>
	<text transform="matrix(1 0 0 1 388.94 66.74)" class="st4 st8">l</text>
	<text transform="matrix(1 0 0 1 392.79 66.74)" class="st4 st8">it, sed do eiusmod tempor </text>
	<text transform="matrix(1 0 0 1 0 90.74)" class="st4 st8">inci</text>
	<text transform="matrix(1 0 0 1 24.29 90.74)" class="st4 st8">d</text>
	<text transform="matrix(1 0 0 1 34.08 90.74)" class="st4 st8">idunt ut labo</text>
	<text transform="matrix(1 0 0 1 125.97 90.74)" class="st4 st8">r</text>
	<text transform="matrix(1 0 0 1 131.31 90.74)" class="st4 st8">e et dolo</text>
	<text transform="matrix(1 0 0 1 196.25 90.74)" class="st4 st8">r</text>
	<text transform="matrix(1 0 0 1 201.6 90.74)" class="st4 st8">e magna a</text>
	<text transform="matrix(1 0 0 1 276.6 90.74)" class="st4 st8">l</text>
	<text transform="matrix(1 0 0 1 280.46 90.74)" class="st4 st8">iqua. Ut enim ad minim veniam, quis nos</text>
	<text transform="matrix(1 0 0 1 571.21 90.74)" class="st4 st8">-</text>
	<text transform="matrix(1 0 0 1 0 114.74)" class="st4 st8">trud exe</text>
	<text transform="matrix(1 0 0 1 60.18 114.74)" class="st4 st8">r</text>
	<text transform="matrix(1 0 0 1 65.52 114.74)" class="st4 st8">cita</text>
	<text transform="matrix(1 0 0 1 91.01 114.74)" class="st4 st8">t</text>
	<text transform="matrix(1 0 0 1 96.65 114.74)" class="st4 st8">ion u</text>
	<text transform="matrix(1 0 0 1 132.24 114.74)" class="st4 st8">l</text>
	<text transform="matrix(1 0 0 1 136.09 114.74)" class="st4 st8">lamco laboris nisi ut a</text>
	<text transform="matrix(1 0 0 1 290.81 114.74)" class="st4 st8">l</text>
	<text transform="matrix(1 0 0 1 294.67 114.74)" class="st4 st8">iquip ex ea commodo consequat. Duis </text>
	<text transform="matrix(1 0 0 1 0 138.74)" class="st4 st8">aute iru</text>
	<text transform="matrix(1 0 0 1 54.54 138.74)" class="st4 st8">r</text>
	<text transform="matrix(1 0 0 1 59.89 138.74)" class="st4 st8">e dolor in </text>
	<text transform="matrix(1 0 0 1 133.12 138.74)" class="st4 st8">r</text>
	<text transform="matrix(1 0 0 1 138.46 138.74)" class="st4 st8">ep</text>
	<text transform="matrix(1 0 0 1 157.13 138.74)" class="st4 st8">r</text>
	<text transform="matrix(1 0 0 1 162.48 138.74)" class="st4 st8">ehenderit in voluptate ve</text>
	<text transform="matrix(1 0 0 1 342.72 138.74)" class="st4 st8">l</text>
	<text transform="matrix(1 0 0 1 346.57 138.74)" class="st4 st8">it esse ci</text>
	<text transform="matrix(1 0 0 1 407.92 138.74)" class="st4 st8">l</text>
	<text transform="matrix(1 0 0 1 411.77 138.74)" class="st4 st8">lum dolo</text>
	<text transform="matrix(1 0 0 1 475.21 138.74)" class="st4 st8">r</text>
	<text transform="matrix(1 0 0 1 480.55 138.74)" class="st4 st8">e eu fugiat </text>
	<text transform="matrix(1 0 0 1 0 162.74)" class="st4 st8">nu</text>
	<text transform="matrix(1 0 0 1 17.79 162.74)" class="st4 st8">l</text>
	<text transform="matrix(1 0 0 1 21.65 162.74)" class="st4 st8">la pariatu</text>
	<text transform="matrix(1 0 0 1 88.62 162.74)" class="st4 st8 st9">r</text>
	<text transform="matrix(1 0 0 1 92.78 162.74)" class="st4 st8">. Excepteur sint occaecat cupidatat non p</text>
	<text transform="matrix(1 0 0 1 390.75 162.74)" class="st4 st8">r</text>
	<text transform="matrix(1 0 0 1 396.09 162.74)" class="st4 st8">oident, sunt in culpa qui </text>
	<text transform="matrix(1 0 0 1 0 186.74)" class="st4 st8">o</text>
	<text transform="matrix(1 0 0 1 9.5 186.74)" class="st4 st8">f</text>
	<text transform="matrix(1 0 0 1 14.26 186.74)" class="st4 st8">ficia deserunt mo</text>
	<text transform="matrix(1 0 0 1 138.46 186.74)" class="st4 st8">ll</text>
	<text transform="matrix(1 0 0 1 146.17 186.74)" class="st4 st8">it anim id est laborum.&quot;</text>
	<text transform="matrix(1 0 0 1 0 234.74)" class="st4 st8">&quot;Lo</text>
	<text transform="matrix(1 0 0 1 25.81 234.74)" class="st4 st8">r</text>
	<text transform="matrix(1 0 0 1 31.15 234.74)" class="st4 st8">em ipsum dolor sit amet, consectetur a</text>
	<text transform="matrix(1 0 0 1 311.31 234.74)" class="st4 st8">d</text>
	<text transform="matrix(1 0 0 1 321.1 234.74)" class="st4 st8">ipiscing e</text>
	<text transform="matrix(1 0 0 1 388.94 234.74)" class="st4 st8">l</text>
	<text transform="matrix(1 0 0 1 392.79 234.74)" class="st4 st8">it, sed do eiusmod tempor </text>
	<text transform="matrix(1 0 0 1 0 258.74)" class="st4 st8">inci</text>
	<text transform="matrix(1 0 0 1 24.29 258.74)" class="st4 st8">d</text>
	<text transform="matrix(1 0 0 1 34.08 258.74)" class="st4 st8">idunt ut labo</text>
	<text transform="matrix(1 0 0 1 125.97 258.74)" class="st4 st8">r</text>
	<text transform="matrix(1 0 0 1 131.31 258.74)" class="st4 st8">e et dolo</text>
	<text transform="matrix(1 0 0 1 196.25 258.74)" class="st4 st8">r</text>
	<text transform="matrix(1 0 0 1 201.6 258.74)" class="st4 st8">e magna a</text>
	<text transform="matrix(1 0 0 1 276.6 258.74)" class="st4 st8">l</text>
	<text transform="matrix(1 0 0 1 280.46 258.74)" class="st4 st8">iqua. Ut enim ad minim veniam, quis nos</text>
	<text transform="matrix(1 0 0 1 571.21 258.74)" class="st4 st8">-</text>
	<text transform="matrix(1 0 0 1 0 282.74)" class="st4 st8">trud exe</text>
	<text transform="matrix(1 0 0 1 60.18 282.74)" class="st4 st8">r</text>
	<text transform="matrix(1 0 0 1 65.52 282.74)" class="st4 st8">cita</text>
	<text transform="matrix(1 0 0 1 91.01 282.74)" class="st4 st8">t</text>
	<text transform="matrix(1 0 0 1 96.65 282.74)" class="st4 st8">ion u</text>
	<text transform="matrix(1 0 0 1 132.24 282.74)" class="st4 st8">l</text>
	<text transform="matrix(1 0 0 1 136.09 282.74)" class="st4 st8">lamco laboris nisi ut a</text>
	<text transform="matrix(1 0 0 1 290.81 282.74)" class="st4 st8">l</text>
	<text transform="matrix(1 0 0 1 294.67 282.74)" class="st4 st8">iquip ex ea commodo consequat. Duis </text>
	<text transform="matrix(1 0 0 1 0 306.74)" class="st4 st8">aute iru</text>
	<text transform="matrix(1 0 0 1 54.54 306.74)" class="st4 st8">r</text>
	<text transform="matrix(1 0 0 1 59.89 306.74)" class="st4 st8">e dolor in </text>
	<text transform="matrix(1 0 0 1 133.12 306.74)" class="st4 st8">r</text>
	<text transform="matrix(1 0 0 1 138.46 306.74)" class="st4 st8">ep</text>
	<text transform="matrix(1 0 0 1 157.13 306.74)" class="st4 st8">r</text>
	<text transform="matrix(1 0 0 1 162.48 306.74)" class="st4 st8">ehenderit in voluptate ve</text>
	<text transform="matrix(1 0 0 1 342.72 306.74)" class="st4 st8">l</text>
	<text transform="matrix(1 0 0 1 346.57 306.74)" class="st4 st8">it esse ci</text>
	<text transform="matrix(1 0 0 1 407.92 306.74)" class="st4 st8">l</text>
	<text transform="matrix(1 0 0 1 411.77 306.74)" class="st4 st8">lum dolo</text>
	<text transform="matrix(1 0 0 1 475.21 306.74)" class="st4 st8">r</text>
	<text transform="matrix(1 0 0 1 480.55 306.74)" class="st4 st8">e eu fugiat </text>
	<text transform="matrix(1 0 0 1 0 330.74)" class="st4 st8">nu</text>
	<text transform="matrix(1 0 0 1 17.79 330.74)" class="st4 st8">l</text>
	<text transform="matrix(1 0 0 1 21.65 330.74)" class="st4 st8">la pariatu</text>
	<text transform="matrix(1 0 0 1 88.62 330.74)" class="st4 st8 st9">r</text>
	<text transform="matrix(1 0 0 1 92.78 330.74)" class="st4 st8">. Excepteur sint occaecat cupidatat non p</text>
	<text transform="matrix(1 0 0 1 390.75 330.74)" class="st4 st8">r</text>
	<text transform="matrix(1 0 0 1 396.09 330.74)" class="st4 st8">oident, sunt in culpa qui </text>
	<text transform="matrix(1 0 0 1 0 354.74)" class="st4 st8">o</text>
	<text transform="matrix(1 0 0 1 9.5 354.74)" class="st4 st8">f</text>
	<text transform="matrix(1 0 0 1 14.26 354.74)" class="st4 st8">ficia deserunt mo</text>
	<text transform="matrix(1 0 0 1 138.46 354.74)" class="st4 st8">ll</text>
	<text transform="matrix(1 0 0 1 146.17 354.74)" class="st4 st8">it anim id est laborum.&quot;</text>
	<text transform="matrix(1 0 0 1 0 737.14)" class="st0 st10">HEADER 3</text>
	<text transform="matrix(1 0 0 1 0 761.14)" class="st4 st8">&quot;Lo</text>
	<text transform="matrix(1 0 0 1 25.81 761.14)" class="st4 st8">r</text>
	<text transform="matrix(1 0 0 1 31.15 761.14)" class="st4 st8">em ipsum dolor sit amet, consectetur a</text>
	<text transform="matrix(1 0 0 1 311.31 761.14)" class="st4 st8">d</text>
	<text transform="matrix(1 0 0 1 321.1 761.14)" class="st4 st8">ipiscing e</text>
	<text transform="matrix(1 0 0 1 388.94 761.14)" class="st4 st8">l</text>
	<text transform="matrix(1 0 0 1 392.79 761.14)" class="st4 st8">it, sed do eiusmod tempor </text>
	<text transform="matrix(1 0 0 1 0 785.14)" class="st4 st8">inci</text>
	<text transform="matrix(1 0 0 1 24.29 785.14)" class="st4 st8">d</text>
	<text transform="matrix(1 0 0 1 34.08 785.14)" class="st4 st8">idunt ut labo</text>
	<text transform="matrix(1 0 0 1 125.97 785.14)" class="st4 st8">r</text>
	<text transform="matrix(1 0 0 1 131.31 785.14)" class="st4 st8">e et dolo</text>
	<text transform="matrix(1 0 0 1 196.25 785.14)" class="st4 st8">r</text>
	<text transform="matrix(1 0 0 1 201.6 785.14)" class="st4 st8">e magna a</text>
	<text transform="matrix(1 0 0 1 276.6 785.14)" class="st4 st8">l</text>
	<text transform="matrix(1 0 0 1 280.46 785.14)" class="st4 st8">iqua.</text>
	<text transform="matrix(1 0 0 1 82 409.13)" class="st0 st10">HEADER 3</text>
	<rect x="80.8" y="421.2" class="st11" width="428.4" height="240.9"/>
	<circle class="st12" cx="295" cy="541.7" r="38.9"/>
	<polygon class="st13" points="282,541.7 282,522 299.1,531.9 316.1,541.7 299.1,551.5 282,561.4 	"/>
</g>
</svg>
