<?xml version="1.0" encoding="utf-8"?>
<!-- Generator: Adobe Illustrator 20.1.0, SVG Export Plug-In . SVG Version: 6.00 Build 0)  -->
<svg version="1.1" id="Layer_1" xmlns="http://www.w3.org/2000/svg" xmlns:xlink="http://www.w3.org/1999/xlink" x="0px" y="0px"
	 viewBox="0 0 901.8 900" style="enable-background:new 0 0 901.8 900;" xml:space="preserve">
<style type="text/css">
	.st0{font-family:'Avenir-Heavy';}
	.st1{font-size:36px;}
	.st2{font-family:'Avenir-Roman';}
	.st3{font-size:16px;}
	.st4{fill:#666666;}
	.st5{fill:#B3B3B3;}
	.st6{font-size:18px;}
	.st7{font-size:24px;}
</style>
<title>04_rent space_proto</title>
<g id="Layer_2">
	<text transform="matrix(1 0 0 1 0 30.74)" class="st0 st1">HEADER 1</text>
	<text transform="matrix(1 0 0 1 0 61.94)" class="st2 st3">a</text>
	<text transform="matrix(1 0 0 1 8.3 61.94)" class="st2 st3">d</text>
	<text transform="matrix(1 0 0 1 18.1 61.94)" class="st2 st3">ipiscing e</text>
	<text transform="matrix(1 0 0 1 85.93 61.94)" class="st2 st3">l</text>
	<text transform="matrix(1 0 0 1 89.79 61.94)" class="st2 st3">it, sed do eiusmod tempor a</text>
	<text transform="matrix(1 0 0 1 293.45 61.94)" class="st2 st3">d</text>
	<text transform="matrix(1 0 0 1 303.24 61.94)" class="st2 st3">ipiscing e</text>
	<text transform="matrix(1 0 0 1 371.08 61.94)" class="st2 st3">l</text>
	<text transform="matrix(1 0 0 1 374.94 61.94)" class="st2 st3">it, sed do eiusmod tempor</text>
	<rect y="110.5" class="st4" width="430.7" height="313.9"/>
	<text transform="matrix(1 0 0 1 1 449.63)" class="st0 st3">a</text>
	<text transform="matrix(1 0 0 1 9.59 449.63)" class="st0 st3">d</text>
	<text transform="matrix(1 0 0 1 19.69 449.63)" class="st0 st3">ipiscing e</text>
	<text transform="matrix(1 0 0 1 90.25 449.63)" class="st0 st3">l</text>
	<text transform="matrix(1 0 0 1 94.42 449.63)" class="st0 st3">it, sed do</text>
	<text transform="matrix(1 0 0 1 1 468.83)" class="st2 st3">a</text>
	<text transform="matrix(1 0 0 1 9.3 468.83)" class="st2 st3">d</text>
	<text transform="matrix(1 0 0 1 19.1 468.83)" class="st2 st3">ipiscing e</text>
	<text transform="matrix(1 0 0 1 86.93 468.83)" class="st2 st3">l</text>
	<text transform="matrix(1 0 0 1 90.79 468.83)" class="st2 st3">it, sed do eiusmod tempor eiusmod tempor  </text>
	<text transform="matrix(1 0 0 1 1.52 859.61)" class="st0 st3">a</text>
	<text transform="matrix(1 0 0 1 10.11 859.61)" class="st0 st3">d</text>
	<text transform="matrix(1 0 0 1 20.21 859.61)" class="st0 st3">ipiscing e</text>
	<text transform="matrix(1 0 0 1 90.77 859.61)" class="st0 st3">l</text>
	<text transform="matrix(1 0 0 1 94.94 859.61)" class="st0 st3">it, sed do</text>
	<text transform="matrix(1 0 0 1 1.52 878.81)" class="st2 st3">a</text>
	<text transform="matrix(1 0 0 1 9.82 878.81)" class="st2 st3">d</text>
	<text transform="matrix(1 0 0 1 19.62 878.81)" class="st2 st3">ipiscing e</text>
	<text transform="matrix(1 0 0 1 87.45 878.81)" class="st2 st3">l</text>
	<text transform="matrix(1 0 0 1 91.31 878.81)" class="st2 st3">it, sed do eiusmod tempor eiusmod tempor  </text>
	<rect x="0.5" y="520.5" class="st4" width="430.7" height="313.9"/>
	<path class="st5" d="M761.4,18.4h132c4.7,0,8.4,3.8,8.4,8.4v14.4c0,4.7-3.8,8.4-8.4,8.4h-132c-4.7,0-8.4-3.8-8.4-8.4V26.9
		C753,22.2,756.7,18.4,761.4,18.4z"/>
	<text transform="matrix(1 0 0 1 775.7 39.03)" class="st0 st6">Popup Fo</text>
	<text transform="matrix(1 0 0 1 857.33 39.03)" class="st0 st6">r</text>
	<text transform="matrix(1 0 0 1 864.66 39.03)" class="st0 st6">m</text>
	<text transform="matrix(1 0 0 1 539.91 129.72)" class="st0 st7">HEADER 2</text>
	<text transform="matrix(1 0 0 1 539.91 160.92)" class="st0 st3">sed do eiusmod tempor inc</text>
	<text transform="matrix(1 0 0 1 539.91 180.12)" class="st2 st3">&quot;Lo</text>
	<text transform="matrix(1 0 0 1 565.72 180.12)" class="st2 st3">r</text>
	<text transform="matrix(1 0 0 1 571.06 180.12)" class="st2 st3">em ipsum dolor sit amet, consectetur </text>
	<text transform="matrix(1 0 0 1 539.91 199.32)" class="st2 st3">a</text>
	<text transform="matrix(1 0 0 1 548.21 199.32)" class="st2 st3">d</text>
	<text transform="matrix(1 0 0 1 558.0099 199.32)" class="st2 st3">ipiscing e</text>
	<text transform="matrix(1 0 0 1 625.84 199.32)" class="st2 st3">l</text>
	<text transform="matrix(1 0 0 1 629.7 199.32)" class="st2 st3">it, sed do eiusmod tempor </text>
	<text transform="matrix(1 0 0 1 539.91 218.52)" class="st2 st3">inci</text>
	<text transform="matrix(1 0 0 1 564.2 218.52)" class="st2 st3">d</text>
	<text transform="matrix(1 0 0 1 573.99 218.52)" class="st2 st3">idunt ut labo</text>
	<text transform="matrix(1 0 0 1 665.88 218.52)" class="st2 st3">r</text>
	<text transform="matrix(1 0 0 1 671.22 218.52)" class="st2 st3">e et dolo</text>
	<text transform="matrix(1 0 0 1 736.16 218.52)" class="st2 st3">r</text>
	<text transform="matrix(1 0 0 1 741.51 218.52)" class="st2 st3">e magna </text>
	<text transform="matrix(1 0 0 1 539.91 237.72)" class="st2 st3">a</text>
	<text transform="matrix(1 0 0 1 548.21 237.72)" class="st2 st3">l</text>
	<text transform="matrix(1 0 0 1 552.0699 237.72)" class="st2 st3">iqua. Ut enim ad minim veniam, quis </text>
	<text transform="matrix(1 0 0 1 539.91 256.92)" class="st2 st3">nostrud exe</text>
	<text transform="matrix(1 0 0 1 625.3 256.92)" class="st2 st3">r</text>
	<text transform="matrix(1 0 0 1 630.65 256.92)" class="st2 st3">cita</text>
	<text transform="matrix(1 0 0 1 656.13 256.92)" class="st2 st3">t</text>
	<text transform="matrix(1 0 0 1 661.78 256.92)" class="st2 st3">ion u</text>
	<text transform="matrix(1 0 0 1 697.36 256.92)" class="st2 st3">l</text>
	<text transform="matrix(1 0 0 1 701.22 256.92)" class="st2 st3">lamco laboris</text>
	<text transform="matrix(1 0 0 1 539.91 314.52)" class="st2 st3">Lo</text>
	<text transform="matrix(1 0 0 1 565.72 314.52)" class="st2 st3">r</text>
	<text transform="matrix(1 0 0 1 571.06 314.52)" class="st2 st3">em ipsum dolor sit amet, consectetur </text>
	<text transform="matrix(1 0 0 1 539.91 333.72)" class="st2 st3">a</text>
	<text transform="matrix(1 0 0 1 548.21 333.72)" class="st2 st3">d</text>
	<text transform="matrix(1 0 0 1 558.0099 333.72)" class="st2 st3">ipiscing e</text>
	<text transform="matrix(1 0 0 1 625.84 333.72)" class="st2 st3">l</text>
	<text transform="matrix(1 0 0 1 629.7 333.72)" class="st2 st3">it, sed do eiusmod tempor </text>
	<text transform="matrix(1 0 0 1 539.91 352.92)" class="st2 st3">inci</text>
	<text transform="matrix(1 0 0 1 564.2 352.92)" class="st2 st3">d</text>
	<text transform="matrix(1 0 0 1 573.99 352.92)" class="st2 st3">idunt ut labo</text>
	<text transform="matrix(1 0 0 1 665.88 352.92)" class="st2 st3">r</text>
	<text transform="matrix(1 0 0 1 671.22 352.92)" class="st2 st3">e et dolo</text>
	<text transform="matrix(1 0 0 1 736.16 352.92)" class="st2 st3">r</text>
	<text transform="matrix(1 0 0 1 741.51 352.92)" class="st2 st3">e magna </text>
	<text transform="matrix(1 0 0 1 539.91 372.12)" class="st2 st3">a</text>
	<text transform="matrix(1 0 0 1 548.21 372.12)" class="st2 st3">l</text>
	<text transform="matrix(1 0 0 1 552.0699 372.12)" class="st2 st3">iqua. Ut enim ad minim veniam, quis </text>
	<text transform="matrix(1 0 0 1 539.91 391.32)" class="st2 st3">nostrud exe</text>
	<text transform="matrix(1 0 0 1 625.3 391.32)" class="st2 st3">r</text>
	<text transform="matrix(1 0 0 1 630.65 391.32)" class="st2 st3">cita</text>
	<text transform="matrix(1 0 0 1 656.13 391.32)" class="st2 st3">t</text>
	<text transform="matrix(1 0 0 1 661.78 391.32)" class="st2 st3">ion u</text>
	<text transform="matrix(1 0 0 1 697.36 391.32)" class="st2 st3">l</text>
	<text transform="matrix(1 0 0 1 701.22 391.32)" class="st2 st3">lamco laboris</text>
</g>
<text transform="matrix(1 0 0 1 538.9102 296.4561)" class="st0 st3">sed do eiusmod tempor inc’=</text>
</svg>
